<svg version="1.0" xmlns="http://www.w3.org/2000/svg" width="40" height="40" viewBox="0 0 512 512"><path d="M233.5 35.1c-27.7 4.8-52.1 17.1-72.1 36.2-22.5 21.4-32.7 41.5-36.5 71.2-1.5 12.2-.6 43.8 1.6 54 1.8 8.5 10.7 34.1 14.3 41 1.9 3.7 2.6 6.6 2.7 11.1 0 5.3-.5 6.8-3.7 12.1-4.6 7.3-4.8 11.3-1.3 18.3 1.4 2.7 2.5 6.4 2.5 8.2 0 8.4 4.7 16.1 12 19.8 3.7 1.9 3.8 2 5.9 13 1.1 6 2.5 16.3 3.1 22.7.6 6.5 1.3 14.7 1.7 18.3l.6 6.5.9-5c1.2-7.5.2-33.1-1.7-38.9-2.4-7.7-1.6-7.9 1.1-.2 5.1 14.7 7.8 29.2 7.8 43 .1 7.1.2 12.1.4 11.2.2-.9.8-1.6 1.3-1.6 1.7 0 .6-16.7-2.6-36.5-.3-1.8.1-1.3 1.1 1.5 2.3 6.9 4.4 20.2 5.4 33.7.9 13.1.8 12.9 5.3 18.5 2.3 3 3.5 3.8 6.1 3.8 4.4 0 4.9-.8 2.7-3.9-1-1.4-3.8-6.5-6.3-11.2-3.5-6.6-4.9-10.7-6.2-18.5-1-5.4-2.9-14.6-4.2-20.4-1.4-5.8-2.7-13.4-3-17l-.4-6.5 1.5 6.5c.8 3.6 3 11.2 4.9 17 1.9 5.8 4.6 14.4 6 19.1 4.3 14.6 9.6 23.8 18 31.6 4 3.7 8.8 8.9 10.5 11.5 3.8 5.8 4.7 6.1 2.5 1-.9-2-2.6-6.3-3.6-9.4-1.1-3.1-2.9-6.7-4.1-8-5.9-6.2-6-8.1-.1-2.3 1.9 1.9 4.3 3.5 5.3 3.5s2.6.9 3.6 2 2.7 2 3.9 2c1.1 0 3.2 1.2 4.7 2.6 2.2 2.1 3 2.4 4.7 1.5 2.9-1.5 3-1.5 4.7 1.9 1.7 3.2 3.9 3.7 6.9 1.5 1.6-1.2 2.1-1.1 3.9.6 2.5 2.3 5.4 2.4 7.9.2 1.7-1.5 1.9-1.5 3.6 0 2.6 2.4 5.6 2.1 9.2-.9 2.9-2.5 3.2-2.6 5-.9 2 1.8 4.4 1.1 7-2 .9-1.1 2.2-1.4 3.9-1 2.1.4 3.3-.1 5.6-2.5 1.6-1.6 3.8-3 5-3 1.2 0 3.4-1.4 5-3 4.5-4.7 5.7-3.9 3.5 2.5-1.8 5.3-1.8 5.4 0 4.3 1-.7 1.6-1.6 1.3-2.2-.3-.5-.1-.6.6-.2 1.3.9 7.1-4.9 7.1-7.1 0-.8.4-1.1 1-.8.5.3 2.3-1.3 4-3.6 2.3-3.2 2.7-4.5 1.8-5.1-2.1-1.3-2.8-.9-2.8 1.7 0 1.4-.4 2.5-1 2.5-.5 0-1 .7-1 1.5s-.5 1.5-1.2 1.5c-.6 0-2.4 1.5-3.9 3.3-2 2.2-2.8 2.7-2.9 1.6 0-.9 2.8-5 6.2-9 9.6-11.5 13.7-21.4 19.4-47.4l2.4-11-.5 9c-.5 10.3-5.1 29.8-8.9 38.1-1.4 3.1-2.3 6-2.1 6.5 1 1.5-4.5 9.2-12 16.9-6.4 6.6-12.5 14.7-12.5 16.6 0 .4 1.9-1.8 4.3-4.8 2.3-3 6.7-7.8 9.8-10.6 5-4.6 12.3-15.7 11.7-17.9-.1-.4.8-3.4 2-6.6 3.5-9.2 8.9-28.2 11.2-39.1 2.1-10.4 3.5-14.2 2.5-6.6-1.1 7.4-6.5 41.1-7.5 46.9-.6 3.3-3.2 9.4-6.5 15.5-3 5.4-5.4 10-5.2 10.2.1.1 1.4.5 2.8.9 3.1.8 8.1-2.9 9.7-7.2.6-1.6 1.5-10.1 2.1-19 1.3-19.2 3.8-29.9 10.7-46 2.6-6.2 4.9-11.1 5.1-11 .2.2-1.7 6.2-4.2 13.3-5.2 15.2-8.4 32.5-8.3 45 0 6-.5 10.4-1.6 13.4-.9 2.5-1.3 4-.7 3.5 2-2.1 4.1-12.2 4.1-19.9.1-10 2-21.1 5.5-31.6 2.6-7.9 4.2-10.6 3.1-5.3-.3 1.6-.8 9.9-1 18.5-.4 13.6-.9 17.3-3.6 27.4-1.7 6.4-3.9 13.3-5 15.3-1 2-9.2 10.8-18.2 19.6-9.9 9.8-20.2 21.1-26.4 29-5.5 7.2-11.5 14-13.2 15.2-4.2 2.8-14.1 3.7-32.8 3.1-17.8-.6-18.5-1-27.9-14.5-3.8-5.5-8.7-12.1-10.8-14.7-2.2-2.6-3.5-5.1-3.1-5.7.4-.7.3-.9-.3-.6-.5.3-7.1-5.8-14.5-13.6-13.4-14.2-15.9-17.7-20.8-30-1.2-3.2-2.5-5.6-2.7-5.3-.8.8 2.5 16.4 4.3 19.8.9 1.8 8.1 9.8 15.9 17.8 14.9 15.3 22 23.7 30.2 36 5.7 8.5 8.6 11.4 12.6 12.9 1.7.7 11.5 1.1 24.5 1.1 28.2-.1 26.7.6 40-17.1 10.4-13.9 17.6-21.8 35-38.1 11.8-11.1 13.7-14.5 15.3-27 .6-4.6 1.7-9.7 2.4-11.3.7-1.7 2-12.5 2.9-24 1.7-23.3 3.8-35.5 6.2-37 9.4-5.9 12-9.7 13.1-18.8.4-2.8 1.7-7.5 3-10.2 3-6.6 3-11.3-.2-15.6-3.3-4.5-5.5-9.3-5.5-12.1 0-1.3 1.4-5.2 3.1-8.8 6.6-14 13.9-32.1 15.4-38.1.8-3.5 2-15.3 2.6-26.3 2.4-39.6-2.2-60.8-18.4-85.3C339.6 49 286 26 233.5 35.1zm45.9 3.5c40.1 6.7 76.1 33.4 94.4 69.9 3.5 7.1 7.2 18.6 7.2 22.6 0 5.1-3.4 3.1-5.3-3.1-.3-1-.8-.6-1.6 1.2-.7 1.9-1.8 2.8-3.4 2.8-3.8 0-4.7-1.9-4.7-9.5 0-9-3.6-16.9-11-24-2.8-2.8-6.3-7.3-7.7-10-3.9-7.7-10.7-16.8-16.4-21.9-10-9-10.5-8.4-.9 1.3 8 8 10.5 11.4 14.1 18.5l4.3 8.7.4 14c.7 22.1-3.4 44-9.4 50.6-2.1 2.4-2.4 2.5-1.4.5 1.6-3.4-.1-2.7-4.5 1.8-2.8 2.9-8.7 6.4-20.3 12-19.9 9.7-25.7 13.6-34.7 23.1-16.1 17-20.1 27.7-12.7 34.6 2.5 2.3 3.3 2.5 10 2.1 7.2-.5 9.5-1.3 7.7-2.6-.6-.4-1-1.3-1-2 0-.6-.4-1.1-1-1-.5.2-.9 1.1-.8 2 .2 1-.4 1.8-1.1 1.8-.8 0-2.1.3-3 .6-1 .4-1.6.1-1.6-.9 0-2.2-1.9-3.2-3.3-1.8-.9.9-.8 1.4.3 2.2 1.1.8.9.9-1 .4-3.4-1-6.7-4.1-7.4-7.1-1.9-7.6 14.8-29.2 30.8-39.8 3.1-2.1 11.4-6.5 18.3-9.7 6.9-3.3 14.5-7.3 17-9 4.4-3.1 4.5-3.1 3.8-.8-1 3.3-3 5.4-8.6 9-2.7 1.7-4.9 3.3-4.9 3.4 0 .8 9.7-3.9 11.5-5.6 2-1.8 2.1-1.8 3.4.3 1.5 2.4 1 2.9-5.1 5.2-2.7 1-6 3.2-7.5 5-1.6 1.8-5.7 5-9.3 7.1-3.5 2.2-9.6 7-13.5 10.8l-7 6.9 7.6-6.4c7-6 18.6-13.8 20.5-13.8.4 0 1.8 1 3.1 2.1 1.7 1.7 17.7 8.1 22.8 9.2.5.1 1.8 1.1 2.8 2.2 2.4 2.6 2 1.6-3-8-2.2-4.5-4.6-10-5.3-12.4-1-3.9-1-4.4.9-5.7 1.4-1 3.7-6.7 7.3-17.9 4.5-14.2 5.4-16.3 6.6-15.1 1.2 1.2 1.1 2.2-1.1 7-4 8.8-1.5 5.7 4.8-5.9 3.2-5.8 6.1-10.5 6.6-10.5.4 0 2 .5 3.5 1.2 2.3 1.1 2.8 1 4-.7 1.3-1.7 1.4-1.7 3.5.9 1.2 1.5 2.7 2.5 3.4 2.2.8-.2 1.7.3 2 1.2 1.4 3.2 1.7 31.7.6 47.9-.9 14.2-1.4 17.2-4.1 24.3-1.7 4.4-3.5 8.2-4 8.5-.5.3-1.4-.4-2-1.5-1.1-2.1-3-1.9-3 .3 0 .8.3.7.9-.2.7-1.1 1-1 1.5.5.3 1.1.6 2.3.6 2.8.1 1.3-2.8 1.7-3.6.5-.3-.5 0-.8.7-.7.6.2 1.4-.3 1.7-1.1.2-.8 0-1.1-.6-.7-.6.3-1.3.2-1.7-.4-.7-1.2 2.6-7.2 6.4-11.4 2.3-2.6 2.4-2.7.4-1.7-1.2.6-3.9 3.2-6.1 5.7l-4 4.7.5-4.9c.7-6.8 3.1-11.8 9.7-19.9 3.1-3.9 5.6-7.5 5.6-8.1 0-2.1-1.3-2.3-4.2-.8-4.2 2.2-4.8.8-1-2.2 1.8-1.4 3.2-3.2 3.2-4 0-2-2.8-6.1-4.6-6.8-1.1-.4-.9.2.5 2 2.6 3.3 2.7 7 .2 8.3-2.3 1.3-3.1.5-3.1-3.1 0-1.9-.4-2.7-1.1-2.2-.7.4-.9 2.4-.6 5.6.5 3.6.2 5.9-1 8.2-.9 1.7-2.9 6.5-4.5 10.6-2.5 6.6-2.8 7-2.4 3.4.2-2.3 1.6-6.9 3.1-10.3 2.8-6.2 2.8-8.4 0-6.1-1.3 1.1-1.4.8-1-2.1.5-3.1.3-3-1.9 1.6-2.8 5.8-3.3 4.2-1-3.6 2.5-8.2 5-12.6 9.1-15.4 2.5-1.6 3.2-2.5 2-2.5-3.3 0-8.7 6.2-11.3 13-3.9 10.5-1.8 1.2 3.1-13.5 4.3-12.8 7-24.1 4.4-18.5-.7 1.4-3.6 7.7-6.5 14-7.3 15.6-8.8 22-8.9 36 0 10.7.3 12.3 3.8 22.8 3.3 10.1 3.8 12.7 4.5 26.1.8 14.4.9 15.1 4 20.1 3.7 5.9 4 8.7 1.3 12.1-3.6 4.8-4.5 7.5-4.5 14.6-.1 6.6-.4 7.4-3.1 10.3-7.3 7.8-17.4 9.6-32 6-11.4-2.9-24.6-3.2-29.2-.7-7 3.7-9.3 11-5.6 18l1.7 3.2.8-4.4c.8-4.7 3.6-8.4 8-10.7 2.9-1.5 20.7-1.8 30.3-.6l5 .7-9.5 1.8c-6.1 1.1-10.9 2.7-13.2 4.2-6.2 4.1-9.1 11.9-7.4 20 .5 2.4 0 3.7-2.4 6.4l-2.9 3.4-1.1-2.7c-1.2-3.3-1.2-13.3 0-16.1.7-1.6.9-1.2.8 1.7-.1 2.1.1 4 .5 4.4.4.4.7-.4.7-1.9 0-3.9 1.8-7.9 3.2-7.1.7.5.8.3.3-.5-1.6-2.7 6.6-9 15-11.7l4-1.3h-4.1c-16.6-.3-27.2 12.4-24.2 28.9.5 3 1.4 5.9 1.9 6.4 2.1 2.2.9 3.4-3 2.9-3.4-.5-4.1-.2-5.6 2.1-1.5 2.2-2.3 2.6-4.6 2.1s-3.1-.1-4.9 2.3c-2.2 2.9-2.3 2.9-4.1 1.1-2.5-2.5-3.6-2.4-6.8.9l-2.8 2.7-1.7-2.2c-2.4-3.3-6.6-3-10.1.7l-2.8 2.9-3.4-2.9c-1.8-1.7-3.8-3-4.4-3-.6 0-2.6 1.5-4.4 3.3l-3.3 3.3-1.6-3.3c-1.9-4-4.9-4.3-7.3-.7l-1.7 2.6-1.7-3.5c-2.2-4.1-4-5-6.6-3.2-1.6 1.2-1.9 1-2.9-1.8-1.2-3.5-4.5-4.7-7-2.7-2.1 1.8-1.7.3.8-3.2 2.8-4.1 2.8-12.3-.1-20-4.3-11.3-9.8-15-22.6-15.5-4.4-.1-10-.6-12.5-1.1-4-.7-3.1-.9 7.5-1.6 6.6-.4 14.6-.9 17.7-1.2 4.4-.4 6.2-.2 8 1.1 1.7 1.3 1.8 1.6.5 1.1-5.2-1.7-7-1.6-3.1.2 5.9 2.8 8.7 6.8 8.1 11.5-.3 2-.2 3.5.3 3.2 1.7-1.1 4-7.6 4-11.4 0-11-12.3-13.4-40-8.1-10.6 2.1-14.7 1.8-22.8-1.6-7.4-3.1-10-6.8-11.8-16.9-.6-3.9-2.2-9.3-3.4-12.1l-2.3-5.2 3.8-7.3c3.8-7.3 3.9-7.5 4.6-22.9.7-13.3 1.2-16.9 3.9-25.5 5.2-16.5 6-19.7 6-24.1 0-7.9-2.9-19.4-7.9-31.2-2.7-6.6-5.3-13.1-5.7-14.6-.3-1.4-1.1-2.9-1.6-3.2-1.4-.9 0 5.7 3.8 17.6 3.8 12.1 5.4 20.4 5.3 26.9-.1 5.9-1.7 2.6-1.8-3.7-.2-7.6-4.3-14.6-10.4-17.9-4.2-2.1-4.4-.9-.3 1.6 4.8 3 9.1 11.7 8.2 16.6l-.7 3.6-1.9-2.3c-2.5-2.9-2.5-1.9-.1 6.5 1.2 4.2 1.9 9.5 1.9 13.8-.2 6.9-.2 6.9-1.6 3.7-.7-1.8-1.8-7.4-2.3-12.3-2.4-22.8-2.9-24.5-6.3-23.2-2.4.9-2 3 .4 2.2 1.8-.6 2-.2 2 3.9 0 5-.4 5.4-3.2 2.9-2.4-2.1-4.8-2.5-4.8-.8 0 .8 2.2 4.9 4.9 9.2 5.3 8.4 7.3 13.1 5 11.7-1.2-.6-1.2-.5 0 .9.7.9 1.6 4.7 1.8 8.4.5 5.6.3 6.6-.8 5.5-1.6-1.5-2.9-1.6-2.9-.1 0 .5.5.7 1.2.3.7-.5.8-.3.3.6-1.1 1.8-2.8-.7-5.9-8.9-3.7-9.6-4.5-14.4-5.7-31.9-1-14.4-.8-23.8.8-36.5.5-4.4.7-4.7 2.3-3.2 2.2 2 3.3 1.9 5.5-.5 1.4-1.5 2.2-1.7 3.7-.9 1.4.8 2.5.6 4.4-.5l2.4-1.6 4.6 9.2c2.5 5.1 5.9 10.6 7.4 12.3 1.7 1.9 3.2 5 3.9 8.3.6 2.9 2 7.1 3.1 9.3 1.9 3.6 2 4.6 1 10.2-.7 3.8-2.9 9.4-5.7 14.5-2.5 4.6-4.3 8.5-4.1 8.7.7.7 8.2-12.9 10.3-18.6 1.2-3.3 3.3-7.1 4.7-8.5 2.5-2.5 2.6-2.5 6.4-.9 4.8 2 8.4 5.3 8.4 7.7 0 3.1-4.4 6.2-12.9 9.2-4.4 1.5-8.8 3.4-9.8 4.1-1 .8 3.4-.4 9.7-2.5 8.7-3 12.2-4.6 14.3-7 1.5-1.7 2.7-3.5 2.7-4.1 0-2.3-5.8-6.7-11.5-8.7-11.2-4-12.8-5.2-14.7-10.7-1-2.8-1.7-8.1-1.7-12l-.1-7 3.1 5.5c5.8 10.5 16 18.6 30.2 23.9 19.5 7.3 28.1 12.9 37.9 24.6 10.2 12.1 14.1 22.8 10.3 28.2-1.5 2.2-7.5 4.8-7.5 3.3 0-.4-1-.6-2.2-.2-1.5.3-1.9.2-1.4-.7 1.1-1.7-3.5-5.2-5.1-3.9-2.1 1.7-1.5 2.6 2.7 4.8 7.5 3.8 13.9 1.5 16.1-5.8 2.1-7.3-4.2-19.2-17.1-32.2-9.4-9.4-14.8-12.7-30.4-18.5-11.3-4.2-16.4-7.3-19.9-11.9-2.9-3.7-6.4-10.4-8.3-15.8l-1.4-3.9 4.6 4c6.6 5.8 11.6 7.2 28.4 8.1 15.9.9 23.2 2.6 28 6.7 2.7 2.2 3.1 3.1 2.5 5.7-2.1 10.3-2.6 8.9 7.8 19.1 8.2 8 11.8 12.7 10.5 14-.1.2-2.8-1.2-5.8-3-3-1.9-6.8-3.7-8.5-4-1.9-.4-.7.4 3 2.3 7.7 3.7 11 7.6 12.5 14.8 1.8 8.8.6 14-4.4 19-7.5 7.5-14.2 7.1-26.1-1.7-21.5-15.9-48.2-19.6-60.1-8.4l-3.7 3.5.6 9.8c.8 11.6 4.8 27.3 8.4 32.4 1.6 2.4 4.6 4.8 8.2 6.5 5 2.5 6.6 2.8 15.1 2.7 23.6-.4 45.2-11.4 53.1-27.1 2.4-4.7 2.7-5 3.1-2.8.4 1.7.1 2.5-.8 2.5-.8 0-1.4.4-1.4.9s-.2 1.6-.5 2.4c-.3.7 0 1.4.7 1.4s2 .2 2.8.4c2.4.6 2.7-11.3.3-13.7-1.7-1.7-1.7-1.7.5-1.2 1.6.5 2.2.2 2.2-1 .1-3.2 3 1.9 3 5.1 0 2.9.1 2.9 2.3-1.4 2.6-4.9 3.2-5.1 6.6-2.7 2.2 1.6 2.2 1.8.7 3.9-2.5 3.6-1.8 11 1 11.1.5 0 .8.4.6.9-.3 1.4 2.7 6.9 3.8 6.9 2 0 1.9-2.2-.4-6.7-1.4-2.6-2.7-6.2-3-7.8-.4-1.9 0-1.3 1.1 1.5 2.1 5.9 11.9 15.6 20 19.8 8.1 4.3 23.6 8.2 32.3 8.2 13 0 23-6.2 27-16.6 2.9-7.8 4.2-18.7 3.1-25.4-.7-4.2-.6-5.8.4-6.9 1.2-1.2 1.3-.9.9 1.7-.4 2.7 1 5.2 2.2 3.9.9-.9-.8-7.7-1.8-7.7-.6 0-2.6-1.3-4.4-3-1.9-1.6-6-3.7-9.1-4.6-11.5-3.4-23.7-.1-42.6 11.3-10.3 6.2-11.7 6.8-17.8 7.1-12.7.8-19.3-5.7-19.4-18.8 0-11 5.6-17.8 16.8-20.6 1.5-.3 2.6-.9 2.3-1.1-1.1-1.1-11.9 3-15.1 5.8l-3.5 3.1 1-2.7c1.6-4.2 4.2-7 13.4-14.6 4.7-3.9 8.6-7.4 8.6-7.9s.3-1.5.6-2.4c.3-.8-1.4.4-3.8 2.8-10.8 10.7-28 11.4-39.2 1.4-4.9-4.2-5.3-5.3-3.4-10.4 1.7-4.7-.1-7.8-6.1-10.9-7.5-3.7-16.3-5.5-28-5.5h-10.5l-4.7-4.9c-2.7-2.8-5.5-7.1-6.7-10.2-1.2-3-2.1-4.8-2.1-4.2-.1 2.4 3.8 11.4 6.4 14.9 3.2 4.2 2.2 4.3-3.7.4-7.9-5.2-10.9-11.9-12.1-26.5-.3-3.2-.4-2.9-.5 1.5-.3 9.9 2.3 23.2 6 30.9l3.4 7.1-3.2-3.1c-8.1-7.8-11.4-18.8-11.4-37.5 0-28.4 4.9-40.7 23.4-58.8 3.4-3.3 4.7-5 3-3.8-6.7 4.6-17.9 17.8-21.9 25.8-2.7 5.4-5.9 9.8-10 13.9-8.2 8.1-10.9 13.7-11.3 24.2-.4 8.5-1.7 11.1-4.7 9.9-.8-.3-1.5-1.6-1.5-2.9 0-2.9-1.8-4.7-4.5-4.6-1.9 0-1.9.1.3 1.6 3.8 2.6 2 9.3-2.1 7.7-2.4-.9-2.5-2.3-1-9.9 3.4-16.5 13-32.5 29.7-49.1 12-12 21-18.6 35.1-25.7 25.8-12.9 53.7-17 82.9-12.1zM160.8 110c-.9 9.5-.9 14.7 0 22.9.7 5.9 1.2 13.6 1.2 17.1v6.5l-2-2.5c-4.2-5.4-5.2-8.8-4.1-13.9.6-2.7.7-7.3.3-10.2l-.7-5.4-.5 7.5c-.3 4.1-.9 7.5-1.4 7.5-.5 0-2.3-2.2-3.9-4.9-4.1-6.5-4.2-15.7-.4-23.1 2.2-4.5 11.5-15 12.4-14.1.2.2-.2 5.8-.9 12.6zm195.2-8.4c6.4 6.9 8.5 12.4 8.5 21.9 0 6.3-.5 8.9-2.3 12.2-1.2 2.3-2.7 4.5-3.3 4.9-2.3 1.4-3.9-2.9-4.1-11l-.1-8.1-.7 9.5c-.6 7.2-1.9 12.9-5.4 23.6-4.5 14-7.4 19.4-10.2 19.4-1.3 0-3.4-3.7-3.4-6.1 0-.5 1.5-2.6 3.4-4.6 1.8-2.1 4.2-5.6 5.3-7.8 4.8-9.5 7.8-29.7 7-46.8-.3-6.4-.2-11.7.3-11.7.4 0 2.6 2.1 5 4.6zm-183 75c0 .2-.9.8-1.9 1.3-1.6.9-1.8.8-1.4-.8.3-1.2 1.1-1.7 1.9-1.4.8.3 1.4.7 1.4.9zm165.7 3.5c.3 1.1 2.3 5.7 4.4 10.1 2.2 4.4 3.9 8.1 3.9 8.4 0 .2-1.7-.4-3.7-1.4-2.1-1.1-5.6-2.5-7.8-3.2-6.2-2-11.2-4.7-11.9-6.6-.9-2.2 1.9-5.2 6.9-7.5 5.3-2.4 7.6-2.4 8.2.2zm-82.3 9.9c2.3 0 5.5-.4 7.3-.9 3.1-.9 3.1-.9-2.5 5.9l-5.7 6.7-1.8-3.1c-1.1-1.7-3.8-5-6-7.4l-4.2-4.3 4.4 1.6c2.4.8 6.2 1.5 8.5 1.5zm-83.8 40.7c-.8-2.7-.1-2 2.8 2.4 2.1 3.1 3 3.8 4 3 .7-.6 1.7-.7 2.1-.3.5.4.5-.1.2-1.1-1.2-3.2.1-1.7 3.3 3.8 1.7 3 2.9 5.9 2.5 6.5-.3.5-.1 1 .5 1s.8.5.4 1.1c-.9 1.6-2.4-1-1.6-3 .6-1.7.4-1.6-1.8 1.3-1 1.3-1 1.7-.2 1.2 1.1-.7 1.7.6 1.2 2.9-.1.5.4.4 1.1-.3.7-.6 1.6-1.2 2-1.2 1.2 0 1.8 4.4.8 5.6-.7.8-.6 1.5.2 2s.9.3.4-.6c-.5-.9-.4-1.1.4-.6.9.6.4 1.8-1.5 4.4-2.6 3.4-2.6 3.5-.3 1.5 1.3-1.2 3.1-2.3 3.9-2.5.8-.2 2.6-2.2 4.1-4.4 3.1-4.8 7.2-8.1 14.6-11.8 7.4-3.7 7.9-3.2.8.9-5.3 2.9-10.9 7.5-9.3 7.5.3 0 2.7-1.2 5.3-2.7 2.7-1.5 4.5-2.1 4-1.4-.6 1-.2 1.1 1.5.6 1.5-.5 2-.4 1.6.4-.9 1.4-.1 1.4 2.7 0 1.9-.9 1.8-.7-.3 1-2.7 2.2-4.5 2.8-3.5 1.1 1-1.7-.8-1.1-3.5 1.1-2.1 1.7-2.2 1.9-.3 1 2.7-1.4 3.6-1.4 2.8-.1-.4.6.1.7 1.1.3 1.2-.5 1.5-.3.9.6-.6 1.1-.3 1.1 1.6.1 3.4-1.8 3.8-2.4.9-1.5-2.9.9-2.5.3.9-1.5 1.5-.8 2.1-.8 1.7-.1-1.1 1.7 2.2 1.3 5.1-.7 1.5-.9 2.4-1.2 2-.6-.4.6-3.1 2.3-6.2 3.8-3 1.4-5.5 2.9-5.5 3.2 0 .3.7.3 1.6 0 2.4-.9 4.1.6 1.8 1.6-1.4.6-1.1.7 1.1.3 2.7-.5 2.8-.4 1 .7-1.1.7-4.5 2.2-7.5 3.5-3 1.2-5 2.3-4.4 2.3 2.1 0 12.8-4 17.3-6.6l4.6-2.6-3 2.6-3 2.7 3.1-1.5c1.7-.8 4.7-3.3 6.7-5.5 4.8-5.3 4.8-3.8.1 1.8-4.5 5.2-20.8 13.4-30.9 15.6-14.4 3-23.8 1.6-30.9-4.6-6.4-5.6-9.8-14.1-10.2-24.9-.2-6.5 0-8 .8-6.5 2.7 5.2 6.2 9.4 11 13.4l5.3 4.3-5.3-5.2c-2.9-2.9-5-5.5-4.7-5.8.3-.3 1.6.5 3 1.8s2.5 1.9 2.5 1.4 1 .2 2.1 1.6c2 2.3 2 2.3.8.2-.8-1.3-1.7-2.2-2.1-2-.3.2-1.8-.8-3.2-2.1-2-1.9-2.3-2.7-1.5-4.3.6-1.1.8-2.2.5-2.6-.3-.3-.6.1-.6.8 0 .9-.5.7-1.5-.6-.8-1-1.5-1.4-1.5-.7 0 .6.5 1.5 1 1.8.6.3 1 1.2 1 1.8 0 .7-.7.3-1.5-.7-.8-1.1-1.5-1.4-1.5-.7s-.4.9-1 .6c-.5-.3-1-1.1-1-1.6 0-.6.5-.7 1-.4 1.2.7 1.2.3.3-2.1-.6-1.6-.7-1.6-1.5.2s-.8 1.8-.5-.1c.2-1.4.9-2 2.5-1.9 1.7.1 2.2-.3 1.7-1.5-.3-.9.4-.5 1.6.9 1.4 1.7 1.9 1.9 1.5.7zm58.8-1.1c.4 1 .1 1.4-.6 1.2-1.5-.5-2.3-2.8-1-2.8.5 0 1.3.7 1.6 1.6zm110.1 4.1c-.3 1.5-.2 2.2.4 1.9.5-.4 1.2-.2 1.6.4.4.6 1.1.7 1.7.4.8-.5.9 1.6.6 6.8-.6 9.2-3.5 15.4-9.9 21.2-5.7 5.1-10.3 6.6-20.1 6.6-16.4 0-35.4-9.3-40.9-20.1-2.8-5.7-2.3-5.7 1.4-.3 2.4 3.8 4.7 5.6 9.7 8.1 3.6 1.8 8.3 3.5 10.5 3.8 3.6.4 3.5.3-1.5-1.3-6.5-2.2-11.6-4.7-12.6-6.3-.4-.8 0-.8 1.5 0 1.1.7 2.1.9 2.1.6 0-.3 1 0 2.2.6 1.2.6 4.5 1.3 7.2 1.4 2.8.1 4.5 0 3.7-.3-1.1-.4-1.1-.6 0-1.4.9-.5.4-.6-1.6-.2-2.3.4-2.6.3-1.5-.5 1.3-1 1.3-1.1 0-1.1-1.2-.1-1.1-.4.4-1.5 1-.8 2.3-1.2 2.9-.8.5.3.3 1-.4 1.5-1.4 1-.2.7 3.8-.9 1.2-.5 1.4-.3.8.7-.5.9-.4 1.1.4.6.6-.4 1.8-.4 2.4.1.7.4.5.1-.5-.9-1-.9-1.4-1.8-.8-2 .6-.2-.7-1.5-3-2.8-2.2-1.4-4.8-3.1-5.8-3.8-1.4-1-1.3-1.1 1-.2 6.6 2.3 11.7 5.6 16.7 10.9 3 3.1 5.1 4.8 4.8 3.8-.6-1.7 1.7-7.7 2.9-7.7.3 0 .3.4 0 .9-.7 1.1 2.1.8 3.1-.4.4-.4.3-.5-.3-.2-.7.4-1.4 0-1.7-.7-.4-1 0-1.4 1.3-1.1 1.3.3 1.7-.1 1.3-1.1-.3-.7-.9-1.1-1.5-.8-.5.3 0-1.3 1.2-3.5 1.3-2.6 2.5-3.9 3.2-3.5.7.5.9.2.5-.8-.4-1.1 0-1.5 1.1-1.3.9.1 2.3-.3 3.1-.9 1.2-.9 1.2-.7.2 1.3-.9 1.6-1.6 2-2 1.2-.5-.7-1.2-.2-1.9 1.4-.7 1.4-1.6 2.4-2.1 2.1-.5-.3-.8.6-.8 1.9 0 1.4.4 2.8.8 3.1.5.3.7 1 .4 1.5-1.1 1.7.2.9 2.1-1.3 1.2-1.4 1.3-1.8.3-1-1.6 1.2-2.9.7-2.9-1 0-.5.4-.7.9-.3.5.3 1.2.1 1.6-.5.4-.6 1-.8 1.5-.5.5.3 1.9-.9 3.1-2.7 1.3-1.8 2.9-3.9 3.6-4.6.7-.7.9-2 .6-2.8-.4-1.1-1.3-.2-2.9 3.1-2.3 4.8-4.4 7.7-4.4 5.9 0-.5.9-2.2 1.9-3.8 1.9-2.9 1.8-6.2-.1-5-.6.4-.4-.4.2-1.7 1.8-3.3 2.4-3.8 1.6-1.2-.6 1.8-.4 2.2.8 1.7.9-.3 1.6-1.1 1.6-1.8 0-.6.5-.4 1 .4.9 1.3 1 1.3 1 0s.1-1.3 1.1 0c.9 1.2 1 1.1.6-.8-.3-1.3-.1-2 .5-1.6.5.3.7 1.7.3 3.1zm-162.9-.4c.1.9-.2 1.5-.7 1.1-.5-.3-.7-.9-.4-1.4.3-.4 0-1.1-.5-1.3-.6-.3-.5-.4.1-.3.7.1 1.3 1 1.5 1.9zm-9.2 5.3c.3.8.2 1.2-.4.9-.6-.3-1-1-1-1.6 0-1.4.7-1.1 1.4.7zM330 244c-.6 1.2-1.4 2-1.7 1.7-.2-.3.1-1.4.8-2.6.7-1.1 1.5-1.8 1.7-1.6.2.2-.2 1.3-.8 2.5zm-90.3 2.2c-.3.8-.6.5-.6-.6-.1-1.1.2-1.7.5-1.3.3.3.4 1.2.1 1.9zm59.6 3.1c-.3.5.1.8.8.6.8-.1 2.1-.1 2.9 0 1.2.1 1.1.4-.3 1.2-1.3.8-2.2.7-3.3-.2-1.1-.9-1.8-.8-3.3.5-1 .9-2.6 1.4-3.7 1.1-1.2-.4-.9 0 .6.9 3.1 1.9 1.4 2-1.9.2l-2.4-1.4 2.4-.8c1.3-.4 3.1-.8 3.9-.8.8-.1 1.4-.6 1.3-1.1-.1-.6.7-1.1 1.7-1.1s1.6.4 1.3.9zm-69.3.2c0 .2-1 .9-2.2 1.5-2.2 1.1-2.2 1-.4-.4 2.1-1.7 2.6-1.9 2.6-1.1zm-4.5 3.5c.4.6 1.1.7 1.7.4.7-.5.8-.2.3.5-.5.9-1 1-1.8.2-.6-.6-1.8-1.1-2.6-1.1-1.1 0-1 .4.5 1.6 1 .8 1.5 1.4.9 1.1-.5-.2-1.9-.7-3-1.1-1.6-.6-1.7-.9-.5-1.6 2-1.3 3.7-1.2 4.5 0zm66.6 2.5c1.9.8 2.7 1.4 1.9 1.4-1.4 0-7.2-2.8-5.9-2.9.4 0 2.2.7 4 1.5zm30.4 51.4c3.2.6 1.9.8-7 1.3-6 .2-11.9.9-12.9 1.3-1.4.6-1.7.5-1.2-.4.5-.7 1.8-1.6 3-2.1 2.6-1.1 12.7-1.1 18.1-.1zm-129.7 8.5c5.4 2.8 9.6 6.9 11.1 10.9.6 1.6 1.1 5.8 1.1 9.4 0 3.7.3 6.4.6 6 .3-.3.6-3.5.6-7.1 0-6.2 0-6.4 2.1-5.7 2.6 1 3.9 5.3 3.2 10.6-.7 4.7-2.4 9.5-3.5 9.5-.3 0-2.1-1.8-3.9-4-3.1-3.8-3.2-4.3-2.3-8.6 1.9-8.9-2-16.3-11-20.8-2.8-1.4-4.6-2.6-4-2.6.7 0 3.4 1.1 6 2.4zm-7.9 32.9c3.8 14 8 23.6 12.6 28.7 2.4 2.7 4.6 6.2 5 7.9.4 1.7 1.1 3.1 1.6 3.1.6 0 .7.5.4 1-.7 1.2 1.3 4.2 2.4 3.6.4-.3.7.4.7 1.5 0 1.6-.5 1.4-3.3-1.3-1.8-1.7-2.9-3.6-2.6-4.1.3-.6.1-.7-.4-.4-.6.4-2.5-.9-4.2-2.8-3.5-4-4.2-6.8-1-3.9 2.1 1.9 2.1 1.9 1.8-.6-.3-1.6-1-2.5-2.2-2.5-5.9 0-16.8-32.4-16.6-49.3v-5.7l1.8 8.5c1 4.7 2.8 12 4 16.3zm126.1 2.9c0 1.5-.4 3-1 3.3-.6.4-1-1.2-1-4.2 0-3.5.3-4.4 1-3.3.5.8 1 2.7 1 4.2zm-109.7-1c-.7 3.7-1 4.4-1.9 3.5-.9-.8.6-6.7 1.7-6.7.4 0 .6 1.5.2 3.2zm106.2 3.8c.4 2 .2 3.7-.6 4.7-1.2 1.3-1.4 1.2-2.1-1.3-.8-3.1-.2-6.4 1.2-6.4.5 0 1.1 1.4 1.5 3zm-99.5 5.7c0 4.8-.2 5.4-1.5 4.3-1-.8-1.5-3.1-1.5-6.7 0-4.8.2-5.4 1.5-4.3 1 .8 1.5 3.1 1.5 6.7zm-5.4-.9c-1.2 1.1-1.8-.7-1-3l.8-2.3.4 2.3c.2 1.3.1 2.6-.2 3zm12.4-2.2c1.1 2.7 1.4 9.7.4 10.6-.3.3-1.4.4-2.5.1-1.5-.4-1.9-1.4-1.9-4.7 0-8 2.1-11.1 4-6zm86.4-1c1 2.5.7 8.2-.5 8.9-1.5 1-1.6.7-2.1-5.3-.4-3.7-.2-5.2.7-5.2.7 0 1.6.7 1.9 1.6zm-5.2 6.4c.3 5.1.1 5.5-1.9 5.8-2.1.3-2.3-.1-2.3-4.3 0-4.9 1.7-9.3 3-7.9.4.5 1 3.4 1.2 6.4zm-6.7 4.1c.6 3.3.4 3.7-2.4 4.9-1.8.7-3.5.9-3.9.6-1.4-1.5-.7-9.2 1.2-12.1l2-3 1.2 3c.7 1.7 1.5 4.7 1.9 6.6zm-64.6-5.5c.6 1.5 1.4 4.6 1.8 7 .6 4.8-.1 5.3-5.1 3.4-2.9-1.1-3.2-3.2-1.5-9.3 1.2-4.3 3.1-4.8 4.8-1.1zm12.6 7.2c.9 3.5 1.4 6.6 1.1 6.9-.3.3-2.6.2-5.1-.1-4.3-.7-4.5-.9-3.8-3.4 1.3-5.4 4.4-11.5 5.3-10.6.5.5 1.6 3.8 2.5 7.2zm11.7-6.1c2.4 2.7 3.5 5.4 4.2 10l.6 4.3h-5.8c-3.2 0-6.1-.3-6.4-.6-.8-.7 1.5-10.2 3.1-13.2 1.4-2.7 2.3-2.8 4.3-.5zm17.1 2.4c1 2 1.6 5 1.5 7.4l-.3 4-5.9.3-5.8.3.7-4.8c1.1-7.4 3.8-11.6 7-10.9.6.1 1.8 1.8 2.8 3.7zm12.3 1.3c2.2 6.9 1.5 8.6-3.2 8.6h-3.7l.6-5.6c.5-5.3 1.9-8.4 3.8-8.4.4 0 1.6 2.4 2.5 5.4zm33.3.9c.1 1-.3 1.5-.9 1.2-.5-.3-1-2.1-.9-3.8 0-2.7.2-2.9.9-1.2.5 1.1.9 2.8.9 3.8zm-109.9.8c0 2.4-.4 3.8-1 3.4-.5-.3-1-2.2-1-4.1 0-1.9.5-3.4 1-3.4.6 0 1 1.8 1 4.1zm106-.2c0 2.2-.5 5.2-1.2 6.8l-1.2 2.8-.5-4c-.6-4 .6-9.5 2.1-9.5.4 0 .8 1.8.8 3.9zm-101.8.6c1.4.6 1.3 9.5-.2 9.5-1 0-2-3.6-2-7.3 0-2.9.1-3 2.2-2.2zm95.8 6.9c0 5-1.2 7.7-2.7 6.2-.4-.3-.8-3.1-1.1-6.1-.4-5.1-.3-5.5 1.7-5.5 1.9 0 2.1.6 2.1 5.4zm-88.3-3.6c1.2.8.3 12.5-1.1 13.9-1.4 1.4-2.6-2.3-2.6-8.5s.7-7.3 3.7-5.4zm80.7 6.7c-.1 11.5-3.7 14.5-4.2 3.5-.4-7.4.2-9.3 2.5-8.8 1.4.3 1.8 1.4 1.7 5.3zm-72.5-3.4c1.7.6 3.1 1.4 3.1 1.7 0 .6-1.2 5.9-2.5 11.9-.9 3.7-3.3 2.7-4.5-1.9-1-3.4-.6-12.8.4-12.8.2 0 1.7.5 3.5 1.1zm64.7 4.6c.8 5.4-.5 13.5-2.4 14.1-1.6.5-3.8-4.8-4.7-11.4-.6-5-.6-5.2 2.2-6.2 4.2-1.5 4.1-1.6 4.9 3.5zm-55.2-2.1c1.9.7 2 3.1.4 10.8-1.1 5.8-3.2 8.1-5 5.5-.9-1.4-.3-14.3.8-16 .6-1.1 1.6-1.1 3.8-.3zm45 3.5c1.2 6.4-.2 16.9-2.4 16.9-2 0-4-6.1-4-12.3 0-7 .3-7.7 3.5-7.7 1.7 0 2.4.8 2.9 3.1zm-36.1-.8c1.6 4.2 1.8 12.5.3 16-.8 2-1.7 3.7-2 3.7-.3 0-1.3-1.4-2.2-3.2-2.3-4.4-1.1-17.8 1.6-17.8 1 0 2 .6 2.3 1.3zm11.1-.3h2.9l-.6 8c-.4 4.4-1.4 9.4-2.3 11.2l-1.7 3.2-1.7-2.2c-1.8-2.2-4-12.2-4-18.1 0-3 .3-3.3 2.3-2.7 1.2.3 3.5.6 5.1.6zm15.6 2.5c0 8.5-3.5 18.5-6.4 18.5-1.8 0-3.6-8-3.6-15.5v-5.4l4.3-.4c2.3-.2 4.5-.4 5-.5.4-.1.7 1.4.7 3.3z"/><path d="M335.9 110.6c-.6 1.7-.8 4.8-.4 7.4.4 2.5.9 6.2 1.2 8.2 1.2 8.7-13.2 29.3-22.3 31.7-2.8.7-5.9.7-10.3 0-13.1-2.1-30.1 4.9-30.1 12.3 0 2.1.2 2 2-1 2.4-4 6.8-6.7 14-8.9 4.6-1.4 6.7-1.4 13.1-.5 9.9 1.4 13.4.4 20.1-5.7 6-5.5 11.3-13.8 14-21.8 1.7-5.1 1.8-5.9.4-10.6-1.1-3.8-1.3-6.3-.6-9.2 1.1-4.8.5-5.9-1.1-1.9zM132.6 170.1c-1.4 1.1-2.6 2.8-2.5 3.7 0 1.2.3 1 .9-.6.6-1.3 2.4-2.9 4.2-3.7 1.8-.8 2.6-1.4 1.7-1.5-.9 0-2.8.9-4.3 2.1zM194 189.4c0 .2 3 2.5 6.8 5 3.7 2.5 9.2 6.9 12.2 9.7 10.1 9.6 12.8 11.7 7.5 5.9-7-7.7-15.6-15-21.5-18.3-2.7-1.6-5-2.6-5-2.3zM143.1 198.5c0 1.6.4 3.7.9 4.5.8 1.2 1 1.1.9-.5-.1-1.1-.5-3.1-.9-4.5-.8-2.4-.8-2.4-.9.5zM315 201.3c-5.3 2.2-17 9.2-17 10.1 0 .3 2.8-1.1 6.3-3 7.6-4.4 12.3-6.4 14.8-6.4 3.6 0 1.9 2.1-3.8 4.6-3.2 1.4-9.6 4.3-14.1 6.5-9.3 4.3-10.2 4.5-10.2 2.4 0-.8-.5-1.5-1.1-1.5-.6 0-.9.9-.6 2 .3 1 0 2.1-.7 2.4-.6.2.2.5 1.8.5 1.6.1 8.4-2.4 15-5.5 15.2-7.1 18.9-8.4 23.8-8.4 5 0 14.1 3.2 18.4 6.5 1.9 1.4 3.4 2.2 3.4 1.6 0-.5-1.5-2.1-3.2-3.4-6.2-4.6-10.1-6-16.9-6.1l-6.6-.1 1.5-2.3c1.4-2.1 1.3-2.2-1.9-2.2-1.9 0-5.9 1.1-8.9 2.3z"/><path d="M169 204c-4.7 2.2-9 5.7-9 7.3 0 .5 1.6-.5 3.5-2.1 1.9-1.7 5.1-3.6 7.2-4.1 5.4-1.5 18.9-1.3 25.3.3 5.7 1.5 29.5 12.5 34.2 15.8 1.7 1.1 2.9 1.5 3.3.8.3-.6-.7-1.8-2.4-2.8-3.5-1.9-3.7-2.5-1.6-4.2 3.1-2.5 4.3-1 9.6 11.9.8 1.9 1.3 2.1 2.2 1.2.9-1 .9-1.5-.4-2.4-.9-.7-1.9-2.4-2.2-3.8-1-4-5.1-9.4-7.4-9.7-1.4-.2-2.7.5-3.5 1.7-.7 1.2-1.9 2.1-2.7 2.1-.7 0-5.5-2.3-10.6-5-12.5-6.7-17-8-30-8.6-9.7-.4-11.5-.3-15.5 1.6z"/><path d="M180.7 208.6c-1.4 1.4-.7 3.5 1.1 3.2.9-.2 1.7-1 1.7-1.7 0-1.6-1.8-2.5-2.8-1.5zM173 210.5c0 1.1.7 1.5 2.3 1.3 1.2-.2 2.2-.8 2.2-1.3 0-.6-1-1.1-2.2-1.3-1.6-.2-2.3.2-2.3 1.3zM185.7 209.6c-.9 1 .2 2.4 1.9 2.4.8 0 1.4-.7 1.4-1.5 0-1.5-2.1-2.1-3.3-.9zM191 210.9c0 1.5.6 2.1 2.1 2.1 2.5 0 2.2-3.3-.4-3.8-1.2-.2-1.7.3-1.7 1.7zM326.1 211c-1.6.9-.6 3 1.5 3 1.5 0 2-2.5.6-3.4-.4-.2-1.4-.1-2.1.4zM331.6 210.7c-1.3 1.4-.5 3.3 1.4 3.3 1.1 0 2-.6 2-1.4 0-1.5-2.4-2.8-3.4-1.9zM168 212.5c0 1 .7 1.5 1.8 1.3 2.1-.4 1.9-2.2-.2-2.6-1-.2-1.6.3-1.6 1.3zM197 212.4c0 1 .9 1.6 2.1 1.6 2.4 0 2.1-2.3-.4-2.8-1-.2-1.7.3-1.7 1.2zM320.1 212.4c-.7.9-.8 1.7-.2 2 1.3.9 4.3-.4 3.8-1.7-.5-1.7-2.3-1.9-3.6-.3zM163 213.5c0 1 .7 1.5 1.8 1.3 2.1-.4 1.9-2.2-.2-2.6-1-.2-1.6.3-1.6 1.3zM202.5 213c-.8 1.3 0 2.3 2.1 2.6.9.2 1.4-.4 1.2-1.3-.4-2-2.4-2.8-3.3-1.3zM337 213.4c0 1 .9 1.6 2.1 1.6 2.4 0 2.1-2.3-.4-2.8-1-.2-1.7.3-1.7 1.2zM275.9 215.8c-2.4 2.2-3 3.4-2.7 5.7l.4 3 1-3.4c1.1-3.8 5.5-7.8 7.4-6.6.8.5.3 1.6-1.6 3.6-1.9 2-2.3 2.9-1.3 2.9 2 0 5.9-4.2 5.9-6.3 0-2.8-5.5-2.1-9.1 1.1zM314.3 213.8c-1.3.2-2.3 1-2.3 1.8 0 1.1.7 1.3 2.8.8 1.5-.4 2.9-.9 3.1-1.1 1-.8-1.5-1.9-3.6-1.5zM207.7 214.7c-1.3 1.2-.7 2.3 1.2 2.3 1 0 2.4.7 3.1 1.5 1 1.2 1.5 1.3 2.1.3 1-1.6 0-3.1-1.6-2.4-.7.2-1.6-.2-1.9-1-.6-1.5-1.8-1.8-2.9-.7zM342.2 215.2c.5 1.5 2.8 1.8 2.9.3 0-.6-.7-1.2-1.7-1.3-1-.3-1.5.1-1.2 1zM159 216.3c0 .8-.7 1.8-1.6 2.1-.8.3-1.2 1-.9 1.6.9 1.5 2.5 1.2 2.5-.5 0-.9.9-1.5 2.1-1.5 1.2 0 1.9-.5 1.7-1.3-.7-1.8-3.8-2.1-3.8-.4zM346.5 216.1c-1 1.5.3 2.5 1.6 1.2.7-.7.7-1.3.1-1.7-.6-.3-1.4-.1-1.7.5zM307.5 217c-.3.5-1.5 1-2.6 1s-1.9.7-1.9 1.6c0 .9.3 1.4.8 1.2.4-.3 2.2-1 4-1.7 1.7-.7 3.2-1.7 3.2-2.2 0-1.2-2.7-1.1-3.5.1zM349.7 218.4c-.7 1.9 1.1 3.2 2.4 1.9.6-.6.5-1.4-.4-2.2-1.2-.9-1.6-.8-2 .3zM215 219.2c0 .7.8 1.8 1.9 2.5 1.6 1 1.8.8 1.7-1-.1-2.3-3.6-3.8-3.6-1.5zM299.1 220.4c-.9 1-.9 1.6-.1 2.1 1.7 1 3.7-1.2 2.4-2.5-.8-.8-1.5-.6-2.3.4zM153.1 226.4c-1.9 5.1-2 6.5-1.1 14.9.5 5 1.6 12.3 2.5 16.2 1.9 8.9 1.9 8.5-.9 8.5-1.4 0-2.8.5-3.1 1.1-.4.6 0 .9 1.1.7 1.4-.2 2.5.8 3.8 3.5 2.4 5 4.4 3.5 2.3-1.6-.9-1.9-1.3-3.8-1-4.1.3-.3-.2-5.4-1.1-11.4-2.5-15.8-2.5-25.1-.3-28.6 1.3-1.8 1.5-3.2.9-3.8-.6-.6-1.7.9-3.1 4.6zM220 222.4c0 .8.4 1.7.9 2 1.1.7 3.3-1.8 2.4-2.7-1.2-1.2-3.3-.7-3.3.7zM352.7 221.7c-1.2 1.1-.8 2.3.7 2.3 1.8 0 4 5.3 3.2 7.8-.4 1.1-.2 2.3.4 2.7 2.6 1.6-1.1 23.1-5.6 32.2-1.9 4-2.3 5.8-1.5 6.6.8.8 1.4.2 2.2-2.1 1-2.8 1.5-3.2 4.8-3.2 2 0 4.3.6 5.1 1.2 1.2 1.1 1.2 1 .1-.5-.8-1-2.7-1.7-4.6-1.7h-3.3l1.9-6.2c2.8-8.9 4.3-25.5 2.9-30.9-1.8-6.5-4.5-10.1-6.3-8.2zM294.4 223.1c-.3.6-.2 1.5.2 1.9 1.2 1.2 3.8-.5 3-1.9-.9-1.4-2.3-1.4-3.2 0zM224.1 224.3c-.9 1.1-.8 1.7.6 2.8.9.8 1.4.9 1 .2-.4-.6-.1-1.3.5-1.6 1-.3 1-.8.2-1.6-.8-.9-1.4-.8-2.3.2zM289.6 224.5c-.3.9.1 1.8 1 2.2 1.9.7 2.8-.2 2.1-2.2-.8-1.9-2.3-1.9-3.1 0zM284.7 226.5c-.4.8-.2 1.7.4 2 .5.4.7 1.1.4 1.6-.4.5 0 .9.8.9.9 0 1.4-1.1 1.5-3 .1-3.2-2.1-4.2-3.1-1.5z"/><path d="M155.6 229.5c-.3.9 0 1.5.9 1.5.8 0 1.5-.7 1.5-1.5s-.4-1.5-.9-1.5-1.1.7-1.5 1.5zM155 233c0 .5.5 1 1 1 .6 0 1-.5 1-1 0-.6-.4-1-1-1-.5 0-1 .4-1 1zM351.4 235.5c-.4.9-.2 2.1.4 2.7.7.7.7 1.6 0 2.8-1.1 1.7-.3 5.9.9 4.7 1.1-1.1 1.4-10.5.3-11.2-.5-.3-1.3.1-1.6 1zM156 237c-1.3.9-1.3 1.1 0 2 1.5 1 2.5 0 1.8-2-.2-.6-.8-.6-1.8 0zM259.5 241.4c-4.4 8.1 1.8 39.1 11.3 56.5 4 7.5 4.6 9.3 4.9 16 .4 6.1.1 8.3-1.5 11.3-1.1 2.1-1.6 3.8-1.2 3.8 1.9 0 4.3-7.7 4.2-13.5-.1-7.1-1.7-11.9-6.5-19.7-4.2-7-9.4-26.1-10.9-39.7-.8-8.2-.8-10.3.6-13.5 2.1-4.9 1.5-5.7-.9-1.2zM150.1 240.6c0 1.1.3 1.4.6.6.3-.7.2-1.6-.1-1.9-.3-.4-.6.2-.5 1.3zM156.2 243.4c.1 1 .8 1.7 1.3 1.7 1.5-.1 1.2-2.4-.3-2.9-.9-.3-1.3.2-1 1.2zM148.8 250.8c-.4 3-2.1 8.1-3.8 11.4-3.7 7.5-3.2 8.7.9 2.2 3.4-5.3 4.4-9.1 3.9-14.9-.3-3.9-.3-3.9-1 1.3zM157 249c0 1.1.7 2 1.5 2 1.7 0 1.8-.2.9-2.4-.9-2.3-2.4-2-2.4.4zM350.7 247.6c-1.3 1.4-.7 5.4.8 5.4.8 0 1.5-.9 1.5-2s0-2.3.1-2.7c.1-1-1.6-1.5-2.4-.7zM158.2 254.6c.4 2.1 2.2 2.3 2.6.1.2-1-.3-1.7-1.3-1.7s-1.5.6-1.3 1.6zM243 254c0 .4-1.2 2-2.6 3.6-4.8 5.4-7.7 9.5-7.2 10 .3.2 1.8-.1 3.2-.8 2.1-.9 2.6-1.7 2.1-3.5-.4-1.8-.2-2.1 1.1-1.6 1 .4 2.4-.4 4-2.3 2.7-3.3 3.1-6.1.9-6.1-.8 0-1.5.3-1.5.7zM349 257c0 1.1.5 2 1 2 .6 0 1-.9 1-2s-.4-2-1-2c-.5 0-1 .9-1 2z"/><path d="M263 260.5c0 3.6 4.4 22.2 6.4 26.9 1.7 4 9.6 17.3 9.6 16.2 0-.5-2.2-5-4.9-10-5.6-10.4-6.7-13.8-8-25.5-.9-8.3-3.1-13.6-3.1-7.6zM246.8 260c-.4.8-.9 3.7-1.2 6.5-.7 7.2-5.1 21.8-9.1 30.3-1.9 4-3.7 8.9-4 11l-.5 3.7 1.3-4c.8-2.2 2.5-6.3 3.9-9 3.6-7.1 11-32.8 10.6-36.7-.3-2.1-.6-2.7-1-1.8zM158.7 260.6c-.3.4.1 2 1 3.7 1.3 2.6 1.7 2.8 2.5 1.4 1.7-3.2-1.2-7.4-3.5-5.1zM347 261.9c0 3.6-8.3 12.1-15 15.4-6 2.9-16.4 3.4-25 1.2-8.1-2-20.9-6.9-25.2-9.5-3.9-2.4-4.8-2.5-4.8-.5 0 1.6 3.4 3.8 4.3 2.8.4-.3 1.8.9 3.2 2.6 3 3.5 4.9 4.1 4 1.1-.5-1.5-.3-1.8.9-1.4.8.3 1.3 1.1 1 1.8-.6 1.6 1.1 3 5.6 4.5 2.8.9 3.5.9 4.2-.3.7-1.3 1.4-1.2 5.2.4 9.2 4.1 26.6 5.2 25.3 1.5-.4-.8.4-1.5 1.8-1.9 2.9-.7 14.5-11.3 14.5-13.2 0-.8.5-1.4 1-1.4.6 0 1-1.1 1-2.5s-.4-2.5-1-2.5c-.5 0-1 .9-1 1.9zm-50.4 15.6c1 .8 1.4 1.5.7 1.5-1.9 0-4.3-1.1-4.3-2.1 0-1.3 1.4-1.1 3.6.6zm31.7 4.2c-.7.2-1.9.2-2.5 0-.7-.3-.2-.5 1.2-.5s1.9.2 1.3.5zM270.7 261.7c-1.1 1-.9 1.6 1.9 4.8 2 2.3 2.7 2.7 3.4 1.5.6-.9.1-2.3-1.3-4.1-2.3-3-3-3.3-4-2.2z"/><path d="M241.7 266.5c-.9 2-1.7 5.5-1.7 7.9 0 2.3-.7 6.5-1.5 9.1-.8 2.7-1.3 5.1-1 5.3.7.7 5.2-15.2 5.8-20.6.3-2.8.5-5.2.3-5.2-.1 0-1 1.6-1.9 3.5zM268 269.2c0 7.9 5.7 19.1 14.1 27.7 4.7 4.9 7.6 5.2 12 1.3 4-3.6 3.5-7.3-1.4-9.8-1.7-.9-8-6.4-13.9-12.2L268 265.5v3.7zM163.2 269.2c.2 1.3.9 2.2 1.5 2.1.7-.2 1 .3.7 1.1-.3.7.2 1.9 1.1 2.6 1.2 1 1.5 1 1.5-.4 0-.9.5-1.6 1-1.6.6 0 1 .7 1 1.5 0 .9 2.2 2.6 5.3 4 2.8 1.4 4.5 2.5 3.7 2.5-.8 0-3.1-.8-5-1.9-3.4-1.8-3.5-1.8-5.2.2-1 1.1-1.8 2.3-1.8 2.6 0 1.3 5.6 3.9 12.6 6 11.6 3.4 12 6.1 1.4 10.8-10.3 4.6-20.4 4-22.9-1.3-2.5-5.5-.8-13.4 2.9-13.4 2.8 0 2.5-2.5-.6-4.9-5.2-4.1-12.3-1.3-14 5.3-1.5 6.2 8.3 16.5 17.6 18.5 8.9 1.9 23.1-3.1 25.3-9 .6-1.6 1.6-2.8 2.1-2.6 1.9.6 1.6 2.5-.9 5.6-3.6 4.2-2.6 3.9 4.3-1.2 3.2-2.3 8.8-5.6 12.5-7.2 3.6-1.7 6.7-3.4 6.7-3.8 0-1-2.6-.3-11.3 3.3-7.5 3.2-10.3 2.2-3.2-1.1 2.5-1.2 4.5-2.5 4.5-3 0-1.3-.8-1.2-8.4 1.7l-6.9 2.7-7.6-1.8c-8.9-2.1-11.1-3-11.1-5 0-1.9.1-1.9 5.2.2 6.3 2.6 19.5 2.4 27.4-.4 5.2-1.9 6.7-2 9.2-1.1 2.6 1 3.4.9 5-.5 1-.9 2.8-1.7 3.9-1.7 2.1 0 5.3-2.9 5.3-4.8 0-.6.6-.9 1.3-.6.7.2 2.1-.2 3.2-1 1.5-1.1 1.7-1.8.9-2.6-.9-.9-2.1-.7-5 .9-14.1 7.4-20.7 9.1-34.5 9.1-12.1 0-16.2-1.5-23.2-7.9-5.1-4.7-6-5-5.5-1.9zm60.3 5.9c-.8 1.2-3.5 1.2-3.5 0 0-1.1 2.2-2 3.3-1.4.4.2.5.9.2 1.4zm-6.5 3.4c-1.3 1.6-4 2.1-4 .7 0-1 4.2-3.2 4.9-2.6.2.2-.2 1-.9 1.9zm-58.2 1.7c.9.9.6 1.7-1.3 3.4-3.6 3.3-4.3 8.8-1.5 12.6 2.2 3 2.2 3 0 1.8-5.2-2.8-6.3-12.7-1.9-17.1 2.2-2.2 3.1-2.3 4.7-.7zm31.9 1.5c-2 .2-5.2.2-7 0-1.7-.2 0-.4 3.8-.4 3.9 0 5.3.2 3.2.4zM234.8 271.5c-2.8 4.3-10 11.5-16 16-2.9 2.1-3.8 3.4-3.8 5.7 0 3.4 4.2 7.8 7.4 7.8 3 0 7.7-5.2 11.9-13 3.9-7.2 5.2-13 3.9-17.5l-.9-3-2.5 4zM249.7 272.4c-.3.7 0 1.9.6 2.6.9 1 .9 1.1 0 .6-1.9-1.1-4.2 3.4-5.9 11.4-.9 4.5-2.8 9.5-4.9 12.9-6.4 10.5-7 20.7-1.5 26.3 3.5 3.4 7 3.6 10.5.5 3.6-3 4.4-7.9 4.4-26.7.1-22.4-1.1-33-3.2-27.6zM254 291.5c0 23.2 1 29.6 5 33.7 6.6 6.6 15 .5 15-10.9 0-6.6-1.4-10.9-5.4-16.8-1.9-2.7-4.2-7.9-5.1-11.4-2.1-8.4-4.9-13.7-7.5-14.4-2-.5-2-.2-2 19.8zM337.5 277.8c-6.2 4.1-7.1 6.1-1.6 3.3 4.8-2.5 5.1-2.5 5.1-.6s-4.6 4.9-6.5 4.1c-.8-.3-1.5-.1-1.5.4s-1.8 1.4-4 2c-4.3 1.2-13.2-.4-19.2-3.5-2.3-1.1-2.8-1.1-2.8 0 0 1.7 2.2 3.5 5 4s5.1 2.5 4.4 3.6c-.3.5-3.1-.4-6.2-2-6.5-3.2-13.1-5.5-13.8-4.8-.3.2 2.6 1.9 6.3 3.6 3.7 1.8 9.6 5 13 7.2 3.5 2.1 6.3 3.5 6.3 3s-.7-1.4-1.5-2.1c-.8-.7-1.5-1.6-1.5-2.1 0-1.5 6.3-4.9 9-4.9 4.3 0 9.8-2 13-4.7 2.8-2.3 2.9-2.7 1.6-4.2-1.2-1.3-1.3-2-.5-2.8.6-.6 1-1.5.8-2-.2-.5-2.6.7-5.4 2.5z"/><path d="M162.6 276.9c-.3.5.1 1.2 1 1.5 2 .8 2.9.1 1.9-1.3-.8-1.3-2.2-1.4-2.9-.2zM348.3 277.2c-1.4 1.8-2.3 4.5-1.6 5.1.3.3 1.5-.6 2.7-2 2.8-3.2 4.7-2.7 6.9 2 2.4 5.1 2.2 11.9-.4 14.3-1.2 1-2.4 1.9-2.8 1.8-.3-.1-1.7.6-3.1 1.5-1.6 1.1-4.7 1.6-9.5 1.6-5.8 0-8.1-.5-12.5-2.8l-5.5-2.9 2.4 2.6c7 7.5 25.9 7.3 34.1-.4 5.2-4.8 3.8-13.6-3-19.4-3.4-2.8-6.2-3.3-7.7-1.4zM158.7 287.7c-1.4 1.4-.6 6.4 1.4 8.4 2.9 2.9 7.3 2.3 7.7-1.2.5-4.2-6.5-9.8-9.1-7.2z"/><path d="M346.6 288.6c-.3.9-.6 3-.5 4.7l.1 3.2 1-3.7c.5-2 1.6-3.9 2.4-4.2 2-.8 4.4 2.1 4.4 5.5 0 1.8.4 2.8 1 2.4 1.7-1 1.1-6.1-.8-7.8-2.4-2.1-6.8-2.2-7.6-.1zM340 296.6c0 .9.7 1.4 1.7 1.2 2.5-.5 2.8-2.8.4-2.8-1.2 0-2.1.6-2.1 1.6zM229.5 330.7c-.5 5.4-.8 12.9-.8 16.6v6.8l-2.4-2.3-2.3-2.2-2.3 2.3-2.2 2.3 2.3-1.1c2.4-1.3 5.6-.2 6.5 2.1 1.1 3.1 1.7-.7 2-11.5.2-10.9 1.4-15.6 3.1-12.8.4.6 1.4 1.1 2.3 1.1 1.4 0 1.3-.4-.5-2.3-1.1-1.2-2.7-3.7-3.5-5.5-1.4-3.3-1.4-3.2-2.2 6.5zM278.8 328.5c-.4 1.6.5 6.4 1.9 11.4 2 6.8 2.3 9.2 1.5 11.3-.6 1.6-.7 2.8-.2 2.8.4 0 1.1-.7 1.4-1.6.4-1.2 1.4-1.4 3.6-.9 2.5.6 3.1.3 3.8-1.6.5-1.2.5-4.3 0-6.7-.4-2.4-.6-5.6-.3-7.1.4-2.1.2-2-1.1.9-1.3 2.8-1.4 4.4-.6 8.5.6 2.7.8 5.2.6 5.4-.2.2-1.4-.3-2.7-1.2-1.8-1.2-2.7-3.1-3.5-7.9-.7-3.5-1.8-8.5-2.5-11.2-1.3-4.6-1.4-4.8-1.9-2.1zM253 342.8c0 10.4.4 14.3 1.4 15.8 1.4 1.8 1.5 1.8 2.2-1 .8-3.3 0-24.3-1.1-26.9-1.8-4.3-2.5-.7-2.5 12.1zM306.3 335c0 3 .2 4.3.4 2.7.2-1.5.2-3.9 0-5.5-.2-1.5-.4-.2-.4 2.8z"/><path d="M219.7 336.8c.3 2.1 0 5.5-.5 7.6-.6 2-.7 4.7-.3 5.8.7 1.9 1 1.6 2.4-2.1 2.1-5.1 2.1-8.3.2-12.1-2-3.9-2.4-3.8-1.8.8zM244.5 344.3c0 3.5-.8 6.6-2.3 9.5-2.8 5.5-2.8 6.1.3 3.2 3.2-3 5-8.8 4.1-13.4-1-5.4-2.1-5-2.1.7zM263.3 345.3c.3 3.8 1.1 6.7 2.3 8.4 3.1 4.1 5.1 4.2 2.6.1-1.2-1.9-2.8-5.9-3.7-8.9l-1.5-5.4.3 5.8zM235.6 345.9c-1 1.5.5 6.2 1.8 5.8 1.2-.5 1-4.7-.3-6-.5-.5-1.2-.4-1.5.2zM274.6 347.6c-.4 1.5-.3 3.1.2 3.6 1.2 1.2 3.5-1.6 3-3.8-.5-2.8-2.5-2.7-3.2.2zM294.5 347c-.3.5.1 1 .9 1 .9 0 1.6-.5 1.6-1 0-.6-.4-1-.9-1-.6 0-1.3.4-1.6 1zM276.5 354c.3.5 1.4 1 2.3 1 1.5 0 1.5-.2.2-1-2-1.3-3.3-1.3-2.5 0zM232 355c-1.1.7-.7 1 1.8 1 2 0 3.1-.4 2.7-1-.8-1.3-2.6-1.3-4.5 0zM170 231.9c0 .5.5 1.3 1 1.6.6.3 1 .2 1-.4 0-.5-.4-1.3-1-1.6-.5-.3-1-.2-1 .4zM173 232.9c0 .6.5 1.3 1 1.6.8.5.7 1.1-.1 2.1-1 1.2-.9 1.8.6 3.2 1.8 1.6 1.8 1.6.6-.1-.8-.9-1.2-2-.9-2.3.5-.5 3.3 2.5 7.1 7.6l1.9 2.5-1.5-2.5c-3.3-5.9-7.9-13-8.3-13-.2 0-.4.4-.4.9zM179.4 237.1c-.3.5.6 2.5 1.9 4.4 2 3 2.6 3.3 3.6 2.1 1.4-1.6-.1-5.6-2-5.6-.6 0-.8-.4-.5-.8.3-.5-.2-.9-1-.9s-1.7.4-2 .8zm4.6 4.6c.6.7.7 1.3.2 1.3-1 0-4.2-4.4-4.2-5.7 0-.4.7.1 1.5 1.2.8 1.1 1.9 2.6 2.5 3.2zM164 238.6c0 .6 1.7 2.6 3.8 4.5l3.7 3.4-3.5-4c-1.9-2.2-3.6-4.2-3.7-4.4-.2-.2-.3 0-.3.5zM164 242.3c0 .2 1.5 1.6 3.3 3.3l3.2 2.9-2.9-3.3c-2.8-3-3.6-3.7-3.6-2.9zM207.5 249.6l-3 2.6 3.5-2.3c4.5-2.9 4.5-2.9 3.4-2.9-.5 0-2.2 1.2-3.9 2.6zM188.3 251.5c0 .8.4 1.2.9.9.5-.3.6-1 .3-1.5-.9-1.3-1.2-1.1-1.2.6zM209.9 253.7c-1.3 1.6-1.2 1.7.4.4.9-.7 1.7-1.5 1.7-1.7 0-.8-.8-.3-2.1 1.3zM212 256c-.8.5-1 1-.5 1 .6 0 1.7-.5 2.5-1s1.1-1 .5-1c-.5 0-1.7.5-2.5 1zM339.6 235.8c.4 1.6-.5 3.7-3.1 7.2-4.6 6.3-3.8 6.6 1 .4 1.9-2.6 3.5-4.1 3.5-3.5 0 .7-1.2 2.8-2.6 4.7-1.5 1.9-2.4 3.4-2.1 3.4.3 0 2-2 3.8-4.5 1.8-2.5 3.5-4.3 3.8-4 .2.3-1 2.7-2.9 5.3-1.8 2.6-2.6 4.1-1.7 3.3.9-.7 2.6-2.8 3.7-4.7 1.7-2.6 1.9-3.7 1-5.4-1.2-2.3-2.5-2.7-1.6-.5 1 2.7-1 1.6-2.2-1.3-.8-1.9-1-2-.6-.4zM341.9 247.7c-1.3 1.6-1.2 1.7.4.4.9-.7 1.7-1.5 1.7-1.7 0-.8-.8-.3-2.1 1.3zM301.8 263.7c.6.2 1.8.2 2.5 0 .6-.3.1-.5-1.3-.5-1.4 0-1.9.2-1.2.5zM166.1 336.6c0 1.1.3 1.4.6.6.3-.7.2-1.6-.1-1.9-.3-.4-.6.2-.5 1.3zM173 380.9c0 .6.4 1.3 1 1.6.6.3.7-.1.4-.9-.7-1.8-1.4-2.1-1.4-.7zM178 389c1.2 1.6 2.4 3 2.6 3 .3 0-.4-1.4-1.6-3-1.2-1.7-2.4-3-2.6-3-.3 0 .4 1.3 1.6 3zM299.2 390.1c-.7 1.1-2.3 2.4-3.6 2.9-1.7.6-3.7 3.5-6.5 9.3-2.3 4.6-4.1 8.8-4.1 9.2 0 .9 13.1-17 14.9-20.4 1.6-2.9 1-3.7-.7-1zM213 393.3c0 1.9 8.7 14.2 10.1 14.2.6 0 2.3 2.2 3.6 4.8 1.4 2.6 2.8 4.6 3 4.3 1.7-1.7-8.7-20.6-11.4-20.6-.7 0-1.7-.9-2.3-2-1.2-2.3-3-2.7-3-.7zm9.8 13.2c-.3.3-.9-.2-1.2-1.2-.6-1.4-.5-1.5.5-.6.7.7 1 1.5.7 1.8zM285 399.7c-1.4.7-3.2 1.3-4.1 1.3-2.1 0-7.4 5.7-9.2 10l-1.6 3.5.6-4.7c.4-3.7.2-4.9-.9-5.3-1.5-.6-7.6 2.4-11 5.3-1.6 1.4-1.8 1.2-2.4-1.6-.8-4.1-2.2-4.2-1.6-.2.2 1.6.2 3-.1 3-.3 0-2.5-1.1-4.8-2.5-5-2.8-7.8-3.2-8.4-1-1.6 5.1-1.5 5-3.4 1.9-2.6-4.2-7.2-8-10.3-8.8-3.4-.8-3.4-.4-.7 3.4 1.2 1.5 3 5.2 4 8.2 1.7 4.8 1.8 5 1.9 2 0-1.8-.9-5.2-2-7.5l-2.1-4.2 4.1 4.5c2.2 2.5 5.2 7 6.7 10s4.1 7.6 5.9 10.1c1.9 2.5 4.2 6.6 5.3 9.1 2.4 5.7 3.5 6.4 6.6 4.4 1.9-1.2 2.5-2.5 2.5-5.1 0-2.7.9-4.6 3.8-7.8 2.1-2.3 5.2-6.8 6.8-10.1 1.6-3.2 4.6-7.7 6.7-10l3.8-4.1-2.1 4.2c-2.3 4.8-2.8 9.3-.7 5.9.7-1 3.1-4.5 5.5-7.8 4.7-6.5 5-8.1 1.2-6.1zm-16.5 13c-.9 8.8-1.8 11-6.5 15.8-2.1 2.2-4.3 5.2-4.9 6.7-1.4 3.7-2.7 3.5-4.7-.5-.9-1.7-3.1-5-4.8-7.2-4.3-5.4-5.6-8.7-5.6-14 0-5 1-6.1 4.2-4.4 6.6 3.4 8 6.8 5.3 13.1-1.2 3.1-1.2 3.8.1 5.6 1.9 2.7 3.6 2.8 5.9.2 1.2-1.4 1.6-2.7 1.1-4.7-1.7-6.8-1.8-8.4-.5-10 1.3-1.5 9.7-7.3 10.7-7.3.2 0 .1 3-.3 6.7zM256 423.5c0 .8-.4 1.5-1 1.5-.5 0-1-.7-1-1.5s.5-1.5 1-1.5c.6 0 1 .7 1 1.5zM194.3 403c-1 1.4-1 1.9 0 2.3.7.2 1.2 1.8 1.3 3.5.1 2.7 4.6 11.2 5.9 11.2.3 0-.6-1.7-1.9-3.8-2.7-4.2-4.3-11.6-2.3-10.9.7.2 3.1 4.1 5.3 8.8 2.4 4.7 5.7 9.8 7.8 11.7 2 1.8 3.6 3.7 3.6 4.2 0 .6.7 1 1.5 1s1.5-.7 1.5-1.5-.4-1.5-1-1.5c-.5 0-.7-.7-.4-1.5.9-2.3-.5-3.8-2.2-2.4-2.2 1.8-3.9-.4-9.3-11.3-5.1-10.2-7.9-13-9.8-9.8zM311.3 403.2c-.6.7-1.5 2.8-2.1 4.5-2.1 6.3-8.6 14.3-13.5 16.7-1.2.6-2.4 2.2-2.5 3.5-.3 2.1.4 1.6 5.3-3 3.1-3 7.5-8 9.7-11.2 2.3-3.1 4.5-5.7 4.9-5.7.5 0 1.3-1 2-2.1.9-1.7.8-2.3-.2-3-1.9-1.2-2.5-1.1-3.6.3zm1.9 3c-.7.7-1.2.8-1.2.2 0-1.4 1.2-2.6 1.9-1.9.2.3-.1 1.1-.7 1.7z"/><path d="M208.5 409.7c6.6 6.3 7.3 7.5 10.7 16.8 2 5.5 4.2 12 4.9 14.5 1.5 5.7 5.2 9.4 8.6 8.5 1.4-.3 3.3.1 4.6 1 4.5 3.2 10.1.8 5.7-2.5-2.2-1.7-2.2-1.8-.4-2.8 1-.6 1.5-1.1.9-1.1-.5 0-1.8.6-2.8 1.3-1.7 1.3-1.6 1.5 1 3.5 2.1 1.5 2.4 2 1.1 2.1-3.5 0-8.6-3.3-10.2-6.6-1.6-3.5-3.4-4.2-5.3-2.3-1.6 1.6-2.3-.2-2.5-7.4-.2-3.6-.7-6.3-1.2-6-.5.4-.6-.6-.2-2.1.4-1.5.2-2.6-.4-2.6-.5 0-.9-.3-.8-.8.1-.4-.7-2.4-1.7-4.5-1.3-2.6-4.6-5.6-10.4-9.8l-8.6-6.1 7 6.9zm22.4 36.3c.3 2.5.3 2.5-1.8.6-2.6-2.3-2.7-3.9-.3-3.4.9.2 1.9 1.4 2.1 2.8zM299.5 408.2c-9.2 6.5-12 10.5-17.6 24.5-3.9 9.9-8.7 15.9-13.1 16.5-1.8.3-3.9.3-4.5.1-2-.8-.4-2.3 2.3-2.3 1.3 0 2.4-.5 2.4-1.1 0-.6.8-.8 1.9-.4 1.3.4 2.6-.4 4.5-3 1.5-1.9 2.5-3.5 2.3-3.5-.2 0-3.1 1.3-6.3 3-3.2 1.6-6.4 3-7.1 3-.7 0-1.7 1-2.4 2.1-2.1 3.9.9 4.4 13.6 2.3 5.5-.9 6.5-2 6.5-6.8 0-2.3 1.1-7.3 2.4-11.2l2.5-6.9.1 7c.2 8 .9 7.1 3.5-4.5 2-9 2.6-10.1 8.3-16.2 5-5.3 5.1-5.7.7-2.6zM280 444.9c0 1-.7 2.1-1.5 2.5-1.6.6-1.9-.3-.9-2.8.8-2.2 2.4-2 2.4.3z"/><path d="M212.1 415.2c0 1-.8 1.8-1.6 1.8-1.7 0-2 1.6-.4 2.6s3.1-1.1 2.6-3.7c-.3-1.5-.5-1.7-.6-.7zM297.5 415c.3.5-.1 1-1.1 1-1.3 0-1.4.3-.4 1.5.9 1.1 1.7 1.2 3.2.4 1.5-.8 1.7-1.3.7-2.5-1.3-1.6-3.4-1.9-2.4-.4zM279.4 428.1c-4.4 6.8-5 7.3-13 11-4.6 2.1-8.4 4.1-8.4 4.4 0 .3 1.2-.1 2.8-.8 1.5-.8 5-2.2 7.8-3.1 2.8-.9 6-2.7 7.1-3.9 2.2-2.5 9.5-14.7 8.7-14.7-.2 0-2.5 3.2-5 7.1zM228.3 429.2c5.9 10.8 8.6 14.8 10.2 14.8 2.1 0 1.9-2.7-.2-3.9-3.8-2.1-.4-1.8 5.1.4 7.6 3.1 10.6 5.9 10.6 10.1 0 1.8.5 3.6 1.2 4 1.8 1.1 0-7.7-2-9.9-2.2-2.4-8.2-5.5-14.1-7.3-4-1.2-5.2-2.2-8.5-7.4-5.3-8.3-6.8-8.8-2.3-.8z"/></svg>