<?xml version="1.0" encoding="UTF-8"?>
<!DOCTYPE svg PUBLIC "-//W3C//DTD SVG 1.1//EN" "http://www.w3.org/Graphics/SVG/1.1/DTD/svg11.dtd">
<svg xmlns="http://www.w3.org/2000/svg" version="1.1" width="640px" height="640px" style="shape-rendering:geometricPrecision; text-rendering:geometricPrecision; image-rendering:optimizeQuality; fill-rule:evenodd; clip-rule:evenodd" xmlns:xlink="http://www.w3.org/1999/xlink">
<g><path style="opacity:1" fill="#fafafa" d="M -0.5,-0.5 C 212.833,-0.5 426.167,-0.5 639.5,-0.5C 639.5,212.833 639.5,426.167 639.5,639.5C 426.167,639.5 212.833,639.5 -0.5,639.5C -0.5,426.167 -0.5,212.833 -0.5,-0.5 Z"/></g>
<g><path style="opacity:1" fill="#070707" d="M 161.5,91.5 C 174.114,91.9409 177.947,97.9409 173,109.5C 165.843,115.377 159.843,114.377 155,106.5C 152.865,99.4498 155.032,94.4498 161.5,91.5 Z"/></g>
<g><path style="opacity:1" fill="#070707" d="M 176.5,107.5 C 177.873,107.343 179.207,107.51 180.5,108C 190.045,114.266 199.379,120.766 208.5,127.5C 207.806,130.088 206.64,132.421 205,134.5C 193.697,127.772 182.864,120.439 172.5,112.5C 173.857,110.814 175.19,109.148 176.5,107.5 Z"/></g>
<g><path style="opacity:1" fill="#080808" d="M 218.5,108.5 C 233.407,108.901 241.907,116.568 244,131.5C 244.667,136.5 244.667,141.5 244,146.5C 243.586,146.957 243.086,147.291 242.5,147.5C 239.754,145.377 236.921,143.377 234,141.5C 235.068,134.371 232.734,128.704 227,124.5C 225.748,121.986 225.248,119.32 225.5,116.5C 222.15,116.335 218.817,116.502 215.5,117C 214.599,126.345 210.766,127.845 204,121.5C 204.92,118.854 206.42,116.354 208.5,114C 211.767,111.87 215.1,110.037 218.5,108.5 Z"/></g>
<g><path style="opacity:1" fill="#020202" d="M 216.5,117.5 C 219.119,117.232 221.619,117.565 224,118.5C 224.667,130.5 224.667,142.5 224,154.5C 221.333,155.833 218.667,155.833 216,154.5C 215.188,142.091 215.355,129.758 216.5,117.5 Z"/></g>
<g><path style="opacity:1" fill="#101010" d="M 225.5,126.5 C 230.022,128.196 232.022,131.529 231.5,136.5C 231.954,140.925 230.288,144.258 226.5,146.5C 225.503,139.866 225.17,133.2 225.5,126.5 Z"/></g>
<g><path style="opacity:1" fill="#121212" d="M 211.5,126.5 C 212.5,126.5 213.5,126.5 214.5,126.5C 214.958,133.345 214.458,140.012 213,146.5C 206.329,140.302 205.829,133.635 211.5,126.5 Z"/></g>
<g><path style="opacity:1" fill="#050505" d="M 241.5,167.5 C 225.562,183.938 209.396,200.272 193,216.5C 194.488,189.154 196.488,161.821 199,134.5C 201.316,133.633 203.316,134.299 205,136.5C 206.41,141.914 209.41,146.247 214,149.5C 214.226,152.095 214.726,154.595 215.5,157C 218.5,157.667 221.5,157.667 224.5,157C 225.113,154.853 225.779,152.686 226.5,150.5C 232.258,153.795 237.758,157.461 243,161.5C 243.322,163.689 242.822,165.689 241.5,167.5 Z"/></g>
<g><path style="opacity:1" fill="#0b0b0b" d="M 329.5,197.5 C 327.802,200.124 325.969,200.124 324,197.5C 313.687,181.857 302.187,167.19 289.5,153.5C 285.483,148.805 282.483,143.471 280.5,137.5C 280.453,136 281.119,135 282.5,134.5C 285.094,135.592 287.261,137.259 289,139.5C 302.273,159.066 315.773,178.399 329.5,197.5 Z"/></g>
<g><path style="opacity:1" fill="#0f0f0f" d="M 293.5,135.5 C 295.716,136.203 297.549,137.536 299,139.5C 301.615,143.783 304.615,147.783 308,151.5C 308.699,154.322 307.532,155.988 304.5,156.5C 299.574,151.079 295.241,145.246 291.5,139C 291.978,137.697 292.645,136.531 293.5,135.5 Z"/></g>
<g><path style="opacity:1" fill="#090909" d="M 231.5,143.5 C 234.016,143.755 236.35,144.589 238.5,146C 242.783,148.615 246.783,151.615 250.5,155C 249.174,157.158 247.507,158.992 245.5,160.5C 239.119,156.983 233.119,152.983 227.5,148.5C 228.857,146.814 230.19,145.148 231.5,143.5 Z"/></g>
<g><path style="opacity:1" fill="#0b0b0b" d="M 289.5,156.5 C 291.276,159.212 292.943,162.045 294.5,165C 294.046,166.622 293.046,167.788 291.5,168.5C 286.923,163.655 282.589,158.655 278.5,153.5C 277.763,151.695 276.763,150.029 275.5,148.5C 276.026,146.77 277.026,145.436 278.5,144.5C 282.189,148.52 285.855,152.52 289.5,156.5 Z"/></g>
<g><path style="opacity:1" fill="#f6f6f6" d="M 278.5,153.5 C 282.589,158.655 286.923,163.655 291.5,168.5C 293.046,167.788 294.046,166.622 294.5,165C 292.943,162.045 291.276,159.212 289.5,156.5C 289.5,155.5 289.5,154.5 289.5,153.5C 302.187,167.19 313.687,181.857 324,197.5C 325.969,200.124 327.802,200.124 329.5,197.5C 331.812,196.522 333.478,194.855 334.5,192.5C 335.506,192.938 335.506,193.604 334.5,194.5C 338.376,196.516 338.376,197.349 334.5,197C 335.056,197.383 335.389,197.883 335.5,198.5C 331.895,198.799 328.561,199.965 325.5,202C 262.966,236.433 200.3,270.6 137.5,304.5C 137.5,304.167 137.5,303.833 137.5,303.5C 150.778,295.188 164.445,287.355 178.5,280C 178.272,279.601 177.938,279.435 177.5,279.5C 178.808,278.768 180.142,277.934 181.5,277C 180.209,275.708 180.209,274.542 181.5,273.5C 182.815,274.476 184.148,275.476 185.5,276.5C 200.696,268.405 215.696,260.071 230.5,251.5C 227.574,247.318 224.407,243.318 221,239.5C 208.34,248.665 195.84,257.999 183.5,267.5C 183.5,266.833 183.167,266.5 182.5,266.5C 195.316,256.53 208.316,246.697 221.5,237C 225.5,233.333 224.833,231 219.5,230C 206.131,240.672 192.464,250.839 178.5,260.5C 177.735,259.34 176.735,258.34 175.5,257.5C 173.471,258.629 173.137,258.129 174.5,256C 173.956,255.283 173.289,254.783 172.5,254.5C 209.586,226.111 246.919,197.944 284.5,170C 286.978,168.062 287.145,165.895 285,163.5C 282.667,160.833 280.333,158.167 278,155.5C 277.292,156.381 276.458,157.047 275.5,157.5C 275.646,155.058 274.813,154.391 273,155.5C 271.164,153.869 271.664,153.202 274.5,153.5C 274.351,152.448 274.517,151.448 275,150.5C 275.667,151.833 276.333,153.167 277,154.5C 277.383,153.944 277.883,153.611 278.5,153.5 Z"/></g>
<g><path style="opacity:1" fill="#060606" d="M 172.5,254.5 C 170.277,256.779 167.611,257.612 164.5,257C 162.413,253.492 160.08,250.158 157.5,247C 196.71,216.95 236.043,187.117 275.5,157.5C 276.458,157.047 277.292,156.381 278,155.5C 280.333,158.167 282.667,160.833 285,163.5C 287.145,165.895 286.978,168.062 284.5,170C 246.919,197.944 209.586,226.111 172.5,254.5 Z"/></g>
<g><path style="opacity:1" fill="#0d0d0d" d="M 241.5,167.5 C 242.794,169.048 243.461,171.048 243.5,173.5C 243.333,175.5 243.167,177.5 243,179.5C 230.101,190.496 216.601,200.329 202.5,209C 216.459,195.88 229.459,182.047 241.5,167.5 Z"/></g>
<g><path style="opacity:1" fill="#0a0a0a" d="M 257.5,191.5 C 260.853,191.555 262.353,193.222 262,196.5C 256.076,200.879 250.243,205.379 244.5,210C 241,210.5 239.5,209 240,205.5C 246.021,200.969 251.854,196.303 257.5,191.5 Z"/></g>
<g><path style="opacity:1" fill="#060606" d="M 276.5,196.5 C 278.017,196.511 279.184,197.177 280,198.5C 284.378,204.755 288.878,210.922 293.5,217C 278.626,226.432 263.293,234.766 247.5,242C 242.865,237.531 239.698,232.365 238,226.5C 251.306,217.018 264.139,207.018 276.5,196.5 Z"/></g>
<g><path style="opacity:1" fill="#090909" d="M 275.5,187.5 C 281.6,187.714 282.6,189.881 278.5,194C 262.974,205.693 247.307,217.193 231.5,228.5C 227.562,226.101 227.562,223.601 231.5,221C 246.636,210.353 261.302,199.187 275.5,187.5 Z"/></g>
<g><path style="opacity:1" fill="#070707" d="M 176.5,206.5 C 177.552,206.351 178.552,206.517 179.5,207C 183.023,211.022 186.357,215.189 189.5,219.5C 185.137,223.767 180.303,227.434 175,230.5C 170.918,226.53 167.418,222.03 164.5,217C 168.285,213.271 172.285,209.771 176.5,206.5 Z"/></g>
<g><path style="opacity:1" fill="#f5f5f5" d="M 337.5,202.5 C 341.847,202.942 342.18,203.775 338.5,205C 340.947,206.825 341.614,208.992 340.5,211.5C 339.176,209.346 337.343,207.679 335,206.5C 333.054,206.763 332.388,207.763 333,209.5C 339.359,217.693 345.526,226.026 351.5,234.5C 352.689,235.429 354.022,235.762 355.5,235.5C 355.5,234.167 355.5,232.833 355.5,231.5C 356.423,230.697 357.423,230.53 358.5,231C 358.034,232.299 358.034,233.799 358.5,235.5C 353.732,239.091 349.065,242.925 344.5,247C 351.743,256.154 358.743,265.488 365.5,275C 366.908,275.315 368.241,274.982 369.5,274C 373.548,270.284 377.882,266.95 382.5,264C 383.823,263.184 384.489,262.017 384.5,260.5C 386.167,260.5 387.833,260.5 389.5,260.5C 385.751,263.888 381.751,267.055 377.5,270C 383.167,270.667 388.833,270.667 394.5,270C 395.94,265.415 398.606,261.915 402.5,259.5C 402.833,259.5 403.167,259.5 403.5,259.5C 395.152,267.594 393.485,276.928 398.5,287.5C 396.567,285.404 394.233,283.904 391.5,283C 386.167,282.667 380.833,282.333 375.5,282C 374.556,279.281 374.223,276.448 374.5,273.5C 340.228,297.324 306.561,322.158 273.5,348C 270.941,349.777 268.274,351.277 265.5,352.5C 291.197,331.98 317.364,311.98 344,292.5C 344.667,291.5 344.667,290.5 344,289.5C 341.62,286.076 338.787,283.076 335.5,280.5C 289.865,314.14 244.532,348.14 199.5,382.5C 199.5,381.833 199.167,381.5 198.5,381.5C 215.278,368.929 231.945,356.096 248.5,343C 247.778,340.259 246.112,339.259 243.5,340C 239.5,343 235.5,346 231.5,349C 230.5,349.667 229.5,349.667 228.5,349C 214.297,329.429 200.464,309.595 187,289.5C 186.275,288.941 185.442,288.608 184.5,288.5C 170.378,295.728 156.378,303.228 142.5,311C 141.177,311.816 140.511,312.983 140.5,314.5C 138.566,313.89 136.899,312.89 135.5,311.5C 203.294,276.044 270.627,239.711 337.5,202.5 Z"/></g>
<g><path style="opacity:1" fill="#0b0b0b" d="M 340.5,211.5 C 345.025,218.563 350.025,225.229 355.5,231.5C 355.5,232.833 355.5,234.167 355.5,235.5C 354.022,235.762 352.689,235.429 351.5,234.5C 345.526,226.026 339.359,217.693 333,209.5C 332.388,207.763 333.054,206.763 335,206.5C 337.343,207.679 339.176,209.346 340.5,211.5 Z"/></g>
<g><path style="opacity:1" fill="#030303" d="M 298.5,225.5 C 300.853,227.101 303.02,229.101 305,231.5C 313.026,242.026 320.86,252.693 328.5,263.5C 315.41,274.551 301.743,284.884 287.5,294.5C 275.941,280.439 264.941,265.939 254.5,251C 254.645,250.228 254.978,249.561 255.5,249C 269.895,241.138 284.229,233.305 298.5,225.5 Z"/></g>
<g><path style="opacity:1" fill="#0a0a0a" d="M 182.5,266.5 C 179.882,267.945 177.382,269.611 175,271.5C 173.017,270.234 172.017,268.568 172,266.5C 174.335,264.6 176.502,262.6 178.5,260.5C 192.464,250.839 206.131,240.672 219.5,230C 224.833,231 225.5,233.333 221.5,237C 208.316,246.697 195.316,256.53 182.5,266.5 Z"/></g>
<g><path style="opacity:1" fill="#050505" d="M 384.5,260.5 C 384.489,262.017 383.823,263.184 382.5,264C 377.882,266.95 373.548,270.284 369.5,274C 368.241,274.982 366.908,275.315 365.5,275C 358.743,265.488 351.743,256.154 344.5,247C 349.065,242.925 353.732,239.091 358.5,235.5C 359.885,234.386 361.385,233.386 363,232.5C 370.382,241.709 377.549,251.043 384.5,260.5 Z"/></g>
<g><path style="opacity:1" fill="#070707" d="M 200.5,234.5 C 204,234.495 205.5,236.162 205,239.5C 198.667,244.167 192.333,248.833 186,253.5C 184.017,252.234 183.017,250.568 183,248.5C 189.021,243.969 194.854,239.303 200.5,234.5 Z"/></g>
<g><path style="opacity:1" fill="#0a0a0a" d="M 335.5,198.5 C 337.104,199.287 337.771,200.62 337.5,202.5C 270.627,239.711 203.294,276.044 135.5,311.5C 132.549,308.311 133.216,305.978 137.5,304.5C 200.3,270.6 262.966,236.433 325.5,202C 328.561,199.965 331.895,198.799 335.5,198.5 Z"/></g>
<g><path style="opacity:1" fill="#060606" d="M 181.5,273.5 C 179.955,270.803 180.621,268.803 183.5,267.5C 195.84,257.999 208.34,248.665 221,239.5C 224.407,243.318 227.574,247.318 230.5,251.5C 215.696,260.071 200.696,268.405 185.5,276.5C 184.148,275.476 182.815,274.476 181.5,273.5 Z"/></g>
<g><path style="opacity:1" fill="#111111" d="M 402.5,259.5 C 398.606,261.915 395.94,265.415 394.5,270C 388.833,270.667 383.167,270.667 377.5,270C 381.751,267.055 385.751,263.888 389.5,260.5C 394.904,256.43 400.571,252.763 406.5,249.5C 408.898,250.389 410.898,251.889 412.5,254C 408.393,254.629 405.06,256.463 402.5,259.5 Z"/></g>
<g><path style="opacity:1" fill="#070707" d="M 108.5,249.5 C 110.017,249.511 111.184,250.177 112,251.5C 114.213,254.095 116.047,256.928 117.5,260C 113.622,264.704 108.955,268.538 103.5,271.5C 100.275,268.44 97.6083,264.94 95.5,261C 96.1007,259.395 97.1007,258.062 98.5,257C 102.08,254.723 105.414,252.223 108.5,249.5 Z"/></g>
<g><path style="opacity:1" fill="#070707" d="M 127.5,255.5 C 133.293,256.421 134.626,259.255 131.5,264C 113.884,276.615 96.5505,289.615 79.5,303C 75.9638,302.989 73.6305,301.156 72.5,297.5C 90.8519,283.476 109.185,269.476 127.5,255.5 Z"/></g>
<g><path style="opacity:1" fill="#030303" d="M 398.5,287.5 C 393.485,276.928 395.152,267.594 403.5,259.5C 412.811,253.848 421.811,254.348 430.5,261C 439.298,272.556 438.298,283.222 427.5,293C 416.357,298.892 406.69,297.059 398.5,287.5 Z"/></g>
<g><path style="opacity:1" fill="#070707" d="M 143.5,270.5 C 125.536,283.161 107.869,296.328 90.5,310C 87.5397,309.394 85.373,307.561 84,304.5C 83.5078,303.451 83.6744,302.451 84.5,301.5C 102.309,288.192 119.976,274.692 137.5,261C 138.833,260.333 140.167,260.333 141.5,261C 142.304,262.771 143.471,264.271 145,265.5C 145.613,267.495 145.113,269.162 143.5,270.5 Z"/></g>
<g><path style="opacity:1" fill="#030303" d="M 235.5,259.5 C 236.496,259.414 237.329,259.748 238,260.5C 249.181,275.677 260.348,290.844 271.5,306C 270.899,307.605 269.899,308.938 268.5,310C 256.026,318.974 243.692,328.141 231.5,337.5C 229.851,336.352 228.351,335.019 227,333.5C 214.795,317.582 202.961,301.416 191.5,285C 192.272,283.779 193.272,282.779 194.5,282C 208.55,274.98 222.216,267.48 235.5,259.5 Z"/></g>
<g><path style="opacity:1" fill="#0b0b0b" d="M 331.5,263.5 C 335.17,264.193 336.17,266.193 334.5,269.5C 318.833,281.333 303.167,293.167 287.5,305C 285.123,305.033 283.79,303.7 283.5,301C 299.34,288.33 315.34,275.83 331.5,263.5 Z"/></g>
<g><path style="opacity:1" fill="#040404" d="M 177.5,279.5 C 177.938,279.435 178.272,279.601 178.5,280C 164.445,287.355 150.778,295.188 137.5,303.5C 133.986,304.878 130.319,305.545 126.5,305.5C 119.203,304.395 111.87,303.728 104.5,303.5C 104.281,302.325 104.614,301.325 105.5,300.5C 116.5,292.333 127.5,284.167 138.5,276C 140.373,274.296 142.04,272.463 143.5,270.5C 145.137,269.782 146.803,269.616 148.5,270C 153.167,273.333 157.833,276.667 162.5,280C 167.501,280.251 172.501,280.084 177.5,279.5 Z"/></g>
<g><path style="opacity:1" fill="#111111" d="M 439.5,270.5 C 444.511,270.334 449.511,270.501 454.5,271C 456.703,273.76 457.036,276.76 455.5,280C 449.843,280.499 444.176,280.666 438.5,280.5C 438.253,277.061 438.586,273.728 439.5,270.5 Z"/></g>
<g><path style="opacity:1" fill="#0c0c0c" d="M 377.5,271.5 C 382.511,271.334 387.511,271.501 392.5,272C 393.883,274.694 394.383,277.527 394,280.5C 388.584,281.639 383.084,281.806 377.5,281C 376.208,277.835 376.208,274.668 377.5,271.5 Z"/></g>
<g><path style="opacity:1" fill="#040404" d="M 398.5,287.5 C 398.84,289.679 399.84,291.512 401.5,293C 404.371,294.935 407.371,296.601 410.5,298C 401.001,304.251 391.334,310.251 381.5,316C 380.167,316.667 378.833,316.667 377.5,316C 371.408,311.474 364.741,310.141 357.5,312C 329.033,329.636 300.7,347.469 272.5,365.5C 269.777,363.066 267.277,360.399 265,357.5C 264.36,355.735 264.527,354.068 265.5,352.5C 268.274,351.277 270.941,349.777 273.5,348C 306.561,322.158 340.228,297.324 374.5,273.5C 374.223,276.448 374.556,279.281 375.5,282C 380.833,282.333 386.167,282.667 391.5,283C 394.233,283.904 396.567,285.404 398.5,287.5 Z"/></g>
<g><path style="opacity:1" fill="#050505" d="M 265.5,352.5 C 246.714,366.071 228.048,379.905 209.5,394C 208.365,394.749 207.365,394.583 206.5,393.5C 203.719,390.066 201.386,386.399 199.5,382.5C 244.532,348.14 289.865,314.14 335.5,280.5C 338.787,283.076 341.62,286.076 344,289.5C 344.667,290.5 344.667,291.5 344,292.5C 317.364,311.98 291.197,331.98 265.5,352.5 Z"/></g>
<g><path style="opacity:1" fill="#040404" d="M 198.5,381.5 C 196.821,380 195.488,378.167 194.5,376C 187.373,373.069 180.04,370.736 172.5,369C 171.027,368.29 170.36,367.124 170.5,365.5C 173.206,365.425 175.873,365.092 178.5,364.5C 190.755,358.988 195.255,349.655 192,336.5C 184.318,323.213 173.818,320.213 160.5,327.5C 157.998,329.17 155.998,331.336 154.5,334C 153.833,334.667 153.167,334.667 152.5,334C 148.671,327.35 144.671,320.85 140.5,314.5C 140.511,312.983 141.177,311.816 142.5,311C 156.378,303.228 170.378,295.728 184.5,288.5C 185.442,288.608 186.275,288.941 187,289.5C 200.464,309.595 214.297,329.429 228.5,349C 229.5,349.667 230.5,349.667 231.5,349C 235.5,346 239.5,343 243.5,340C 246.112,339.259 247.778,340.259 248.5,343C 231.945,356.096 215.278,368.929 198.5,381.5 Z"/></g>
<g><path style="opacity:1" fill="#0b0b0b" d="M 322.5,279.5 C 325.654,280.474 326.654,282.474 325.5,285.5C 319.191,289.975 313.025,294.641 307,299.5C 305.017,298.234 304.017,296.568 304,294.5C 310.355,289.636 316.522,284.636 322.5,279.5 Z"/></g>
<g><path style="opacity:1" fill="#060606" d="M 405.5,302.5 C 406.978,302.238 408.311,302.571 409.5,303.5C 413.101,309.04 416.435,314.706 419.5,320.5C 414.366,325.991 408.533,330.658 402,334.5C 401.228,334.355 400.561,334.022 400,333.5C 395.957,327.247 391.79,321.08 387.5,315C 393.392,310.564 399.392,306.398 405.5,302.5 Z"/></g>
<g><path style="opacity:1" fill="#070707" d="M 434.5,313.5 C 438.675,313.188 442.675,313.855 446.5,315.5C 447.521,316.002 447.688,316.668 447,317.5C 429.744,330.212 412.577,343.045 395.5,356C 394.241,356.982 392.908,357.315 391.5,357C 390.195,352.208 391.028,347.708 394,343.5C 406.979,332.615 420.479,322.615 434.5,313.5 Z"/></g>
<g><path style="opacity:1" fill="#0c0c0c" d="M 274.5,306.5 C 278.485,306.629 279.818,308.463 278.5,312C 262.582,324.205 246.416,336.039 230,347.5C 227.34,346.356 226.507,344.523 227.5,342C 243.351,330.303 259.017,318.47 274.5,306.5 Z"/></g>
<g><path style="opacity:1" fill="#050505" d="M 346.5,319.5 C 347.496,319.414 348.329,319.748 349,320.5C 350.5,331 346,335.5 335.5,334C 331.538,332.789 330.871,330.789 333.5,328C 338.24,325.64 342.574,322.807 346.5,319.5 Z"/></g>
<g><path style="opacity:1" fill="#030303" d="M 447.5,318.5 C 449.716,319.203 451.549,320.536 453,322.5C 482.641,362.308 512.474,401.975 542.5,441.5C 524.385,455.731 506.052,469.731 487.5,483.5C 485.851,482.352 484.351,481.019 483,479.5C 453.274,439.949 423.774,400.283 394.5,360.5C 394.876,358.617 395.876,357.117 397.5,356C 414.633,344.021 431.3,331.521 447.5,318.5 Z"/></g>
<g><path style="opacity:1" fill="#0b0b0b" d="M 265.5,322.5 C 268.323,323.148 269.823,324.814 270,327.5C 264.076,331.879 258.243,336.379 252.5,341C 249,341.5 247.5,340 248,336.5C 254.021,331.969 259.854,327.303 265.5,322.5 Z"/></g>
<g><path style="opacity:1" fill="#e1e1e1" d="M 178.5,364.5 C 178.5,363.833 178.167,363.5 177.5,363.5C 191.419,356.913 194.919,346.58 188,332.5C 180.132,324.83 171.299,323.497 161.5,328.5C 161.5,327.833 161.167,327.5 160.5,327.5C 173.818,320.213 184.318,323.213 192,336.5C 195.255,349.655 190.755,358.988 178.5,364.5 Z"/></g>
<g><path style="opacity:1" fill="#080808" d="M 177.5,363.5 C 158.367,363.582 150.867,354.249 155,335.5C 156.666,332.669 158.832,330.336 161.5,328.5C 171.299,323.497 180.132,324.83 188,332.5C 194.919,346.58 191.419,356.913 177.5,363.5 Z"/></g>
<g><path style="opacity:1" fill="#eaeaea" d="M 167.5,331.5 C 180.137,330.304 185.97,335.971 185,348.5C 180.436,357.68 173.603,359.847 164.5,355C 157.181,346.052 158.181,338.219 167.5,331.5 Z"/></g>
<g><path style="opacity:1" fill="#080808" d="M 169.5,332.5 C 180.997,332.815 185.497,338.482 183,349.5C 181.833,352 180,353.833 177.5,355C 163.443,356.619 158.61,350.786 163,337.5C 164.965,335.45 167.132,333.783 169.5,332.5 Z"/></g>
<g><path style="opacity:1" fill="#070707" d="M 260.5,357.5 C 265.035,358.853 268.035,361.853 269.5,366.5C 265.473,370.688 260.973,374.355 256,377.5C 254.739,377.241 253.739,376.574 253,375.5C 251.086,373.252 249.586,370.752 248.5,368C 249.101,366.395 250.101,365.062 251.5,364C 254.402,361.583 257.402,359.416 260.5,357.5 Z"/></g>
<g><path style="opacity:1" fill="#0b0b0b" d="M 280.5,361.5 C 283.465,361.73 284.798,363.397 284.5,366.5C 282.435,376.199 276.768,379.033 267.5,375C 266.483,373.951 266.316,372.784 267,371.5C 271.683,368.303 276.183,364.97 280.5,361.5 Z"/></g>
<g><path style="opacity:1" fill="#080808" d="M 542.5,444.5 C 543.5,444.5 544.5,444.5 545.5,444.5C 546.364,452.232 543.697,458.399 537.5,463C 526.988,470.423 516.655,478.09 506.5,486C 501.317,488.815 495.984,489.148 490.5,487C 489.269,485.817 489.269,484.651 490.5,483.5C 507.901,470.479 525.235,457.479 542.5,444.5 Z"/></g>
<g><path style="opacity:1" fill="#070707" d="M 527.5,471.5 C 528.822,471.33 529.989,471.663 531,472.5C 532.233,474.866 533.066,477.366 533.5,480C 526.898,496.541 532.232,506.874 549.5,511C 551.286,511.785 552.786,512.951 554,514.5C 557.889,525.278 562.056,535.945 566.5,546.5C 566,546.833 565.5,547.167 565,547.5C 547.216,527.302 529.883,506.635 513,485.5C 512.316,484.216 512.483,483.049 513.5,482C 518.414,478.723 523.08,475.223 527.5,471.5 Z"/></g>
</svg>
